<svg width="43" height="40" viewBox="0 0 43 40" fill="none" xmlns="http://www.w3.org/2000/svg">
<path d="M27.833 33.6511V33.3084C27.833 30.5821 25.3928 28.3639 22.394 28.3639H8.79728C5.79842 28.3639 3.35939 30.5822 3.35939 33.3084V33.6516C1.99975 34.08 2 34.868 2 35.7804C2 37.1456 3.21722 38.2523 4.71895 38.2523H26.4737C27.9754 38.2523 29.1932 37.1456 29.1932 35.7804C29.1931 34.8675 29.1926 34.0793 27.833 33.6511Z" stroke="#264B82" stroke-width="3"/>
<path d="M38.5138 24.8243L19.8691 14.0598" stroke="#264B82" stroke-width="3"/>
<rect x="16.7263" y="4.22552" width="6.94484" height="13.8897" transform="rotate(30 16.7263 4.22552)" stroke="#264B82" stroke-width="3"/>
<path d="M12.9922 1.66669L26.8253 9.65325" stroke="#264B82" stroke-width="3"/>
<path d="M5.8739 13.9968L19.707 21.9834" stroke="#264B82" stroke-width="3"/>
</svg>
