<svg width="26" height="27" viewBox="0 0 26 27" fill="none" xmlns="http://www.w3.org/2000/svg">
<g clip-path="url(#clip0)">
<path d="M10.4333 24.0788C10.4333 25.2556 9.49451 26.1633 8.35455 26.1633C7.21459 26.1633 6.2758 25.2219 6.2758 24.0788C6.2758 22.9357 7.21459 21.9943 8.35455 21.9943C9.49451 21.9943 10.4333 22.9357 10.4333 24.0788ZM20.9276 21.9943C19.7542 21.9943 18.8489 22.9357 18.8489 24.0788C18.8489 25.2219 19.7877 26.1633 20.9276 26.1633C22.0676 26.1633 23.0064 25.2219 23.0064 24.0788C23.0064 22.9357 22.0676 21.9943 20.9276 21.9943ZM9.42745 6.23468C8.891 6.23468 8.32102 6.57089 8.32102 7.24331C8.32102 7.94935 8.75689 8.25194 9.3604 8.25194H23.0728C23.4081 8.25194 23.6763 8.62177 23.5757 8.95798L22.2011 15.4718C22.1676 15.6736 21.9999 15.8417 21.7987 15.8753L9.52804 18.565C9.25981 18.6322 8.99158 18.4641 8.92453 18.1951L5.16936 2.86937C5.03525 2.4323 4.63291 2.16333 4.16352 2.16333H1.07892C0.542468 2.16333 0.0395442 2.53316 0.00601594 3.0711C-0.0610405 3.7099 0.441883 4.18059 1.04539 4.18059H2.99003C3.22473 4.18059 3.4259 4.3487 3.49295 4.55042L7.08047 19.3046C7.38223 20.3805 8.45513 21.0193 9.52804 20.784L22.6034 17.8926C23.4081 17.7244 24.0451 17.1193 24.2128 16.346L25.9563 8.21832C26.1909 7.20969 25.4533 6.23468 24.414 6.23468H9.42745Z" fill="#DB2B21"/>
</g>
<defs>
<clipPath id="clip0">
<rect width="26" height="26.0545" fill="white" transform="translate(0 0.16333)"/>
</clipPath>
</defs>
</svg>
