<svg width="41" height="42" viewBox="0 0 41 42" fill="none" xmlns="http://www.w3.org/2000/svg">
<circle cx="17.5" cy="10.5" r="8.9" stroke="#264B82" stroke-width="3.2"/>
<path fill-rule="evenodd" clip-rule="evenodd" d="M35.864 40.0478C35.864 39.487 35.8382 38.9322 35.7879 38.3845C35.6904 37.3251 36.0615 39.3825 35.7879 38.3845H32.4151C32.4048 38.2936 32.4271 38.4749 32.4151 38.3845L28.7196 41.7395H32.509H35.864V40.0478ZM18.7723 41.7395H3.35504H0V40.0478C0 39.487 0.0257463 38.9322 0.0761214 38.3845C0.915304 29.2607 8.58926 22.1158 17.932 22.1158C27.2747 22.1158 34.5831 30.5454 35.7879 38.3845H32.4151C31.7151 33.1071 25.4202 25.4709 17.932 25.4709C10.4438 25.4709 4.2744 31.1171 3.4489 38.3845H10.617L18.7723 41.7395ZM18.7723 41.7395L10.617 38.3845H20.5494H22.1747H32.4151L28.7196 41.7395H18.7723Z" fill="#264B82"/>
<path d="M30.0849 27.1072L30.6764 26.4844L30.082 25.8645L27.6969 23.3771L27.0435 22.6956L26.3941 23.3809L19.3467 30.8176L18.762 31.4346L19.3447 32.0536L26.4642 39.6169L27.1201 40.3137L27.7754 39.6163L30.1364 37.1036L30.7211 36.4813L30.1303 35.8647L28.4298 34.0899L39.0048 34.0334L39.9043 34.0286L39.9 33.1291L39.8835 29.6976L39.8791 28.7971L38.9787 28.8019L28.4219 28.8583L30.0849 27.1072Z" fill="#264B82" stroke="white" stroke-width="1.8"/>
</svg>
