<svg width="39" height="39" viewBox="0 0 39 39" fill="none" xmlns="http://www.w3.org/2000/svg">
<path d="M27.8708 31.4211L30.0078 29.0526H22V26.9474H30.0078L27.8708 24.5789L29.5382 23L34 28L29.5382 33L27.8708 31.4211Z" fill="#264B82"/>
<path d="M19.5002 1.13361L0.77356 7.89994V31.5733L19.5002 38.2336L23.2102 36.9969C24.7703 37.8955 26.5335 38.3819 28.3336 38.4103C29.6334 38.4126 30.921 38.1583 32.1223 37.6619C33.3237 37.1656 34.4152 36.4369 35.3344 35.5178C36.2535 34.5986 36.9822 33.5071 37.4785 32.3057C37.9749 31.1043 38.2292 29.8168 38.2269 28.5169V7.89994L19.5002 1.13361ZM19.5002 3.43027L33.8102 8.55361L28.5102 10.4969L14.2002 5.37361L19.5002 3.43027ZM11.0202 6.61027L25.3302 11.7336L19.5002 13.8536L5.19023 8.73027L11.0202 6.61027ZM19.5002 35.9369L3.07023 29.9303V10.1436L18.4402 15.7969V28.3403C18.4339 30.9204 19.4503 33.398 21.2669 35.2303L19.5002 35.9369ZM28.3336 36.1136C26.7961 36.1136 25.2932 35.6577 24.0149 34.8036C22.7366 33.9494 21.7403 32.7354 21.1519 31.315C20.5636 29.8946 20.4097 28.3317 20.7096 26.8238C21.0095 25.3159 21.7499 23.9308 22.837 22.8437C23.9241 21.7566 25.3092 21.0162 26.8171 20.7163C28.3249 20.4164 29.8879 20.5703 31.3083 21.1587C32.7287 21.747 33.9427 22.7433 34.7968 24.0216C35.651 25.3 36.1069 26.8029 36.1069 28.3403C36.1023 30.4054 35.2836 32.3854 33.8283 33.8506C32.373 35.3158 30.3986 36.148 28.3336 36.1666V36.1136ZM36.1069 22.3336C35.1836 21.1593 34.0019 20.2137 32.6538 19.5702C31.3056 18.9268 29.8272 18.6029 28.3336 18.6236C26.8431 18.6224 25.3713 18.955 24.0261 19.597C22.681 20.239 21.4967 21.1741 20.5602 22.3336V15.7969L35.9302 10.1436V22.3336H36.1069Z" fill="#264B82"/>
<path d="M19.4997 1.13339L38.2264 7.89972V28.5697C38.2287 29.8696 37.9744 31.1571 37.478 32.3585C36.9817 33.5599 36.253 34.6514 35.3339 35.5706C34.4147 36.4897 33.3232 37.2183 32.1218 37.7147C30.9204 38.2111 29.6329 38.4654 28.333 38.4631C26.5329 38.4347 24.7698 37.9483 23.2097 37.0497L19.4997 38.2864L0.773042 31.5201V7.89972L19.4997 1.13339ZM28.5097 10.4967L33.8097 8.55339L19.4997 3.43005L14.1997 5.37339L28.5097 10.4967ZM19.4997 13.8534L25.3297 11.7334L11.0197 6.61005L5.18971 8.73005L19.4997 13.8534ZM20.5597 22.3334C21.4962 21.1739 22.6805 20.2388 24.0256 19.5968C25.3707 18.9548 26.8426 18.6222 28.333 18.6234C29.7827 18.6083 31.2173 18.9178 32.5318 19.5292C33.8462 20.1406 35.0072 21.0384 35.9297 22.1567V22.3687H36.1064L35.9297 22.1567V10.1434L20.5597 15.7967V22.3334ZM19.4997 35.9367L21.2664 35.2301C19.4498 33.3978 18.4334 30.9202 18.4397 28.3401V15.7967L3.06971 10.1434V29.9301L19.4997 35.9367ZM28.333 36.1134C29.8705 36.1134 31.3734 35.6575 32.6517 34.8033C33.93 33.9492 34.9263 32.7352 35.5147 31.3148C36.103 29.8944 36.2569 28.3314 35.957 26.8236C35.6571 25.3157 34.9167 23.9306 33.8296 22.8435C32.7425 21.7564 31.3574 21.016 29.8495 20.7161C28.3417 20.4161 26.7787 20.5701 25.3583 21.1584C23.9379 21.7468 22.7239 22.7431 21.8697 24.0214C21.0156 25.2997 20.5597 26.8026 20.5597 28.3401C20.5643 30.4052 21.383 32.3852 22.8383 33.8504C24.2936 35.3156 26.268 36.1478 28.333 36.1664V36.1134ZM19.4997 0.568054H19.323L0.596376 7.35205L0.243042 7.47572V31.8911L0.596376 32.0147L19.323 38.7281H19.4997H19.6587L23.192 37.5621C24.7825 38.4265 26.5584 38.8932 28.3684 38.9224C31.1328 38.9224 33.784 37.8242 35.7388 35.8695C37.6935 33.9147 38.7917 31.2635 38.7917 28.4991V7.47572L38.4384 7.35205L19.6764 0.638721H19.4997V0.568054ZM15.7544 5.37339L19.4997 3.99539L32.255 8.57105L28.5097 9.93139L15.7544 5.37339ZM6.74438 8.73005L11.0197 7.17539L23.775 11.7334L19.4997 13.2881L6.74438 8.73005ZM3.59971 29.5591V10.9031L17.9097 16.2031V28.3754C17.9086 30.8194 18.7723 33.1849 20.3477 35.0534L19.4997 35.4067L3.59971 29.5591ZM21.0897 16.1677L35.3997 10.8677V20.7434C33.4632 18.9955 30.9416 18.0373 28.333 18.0581C25.63 18.0433 23.0291 19.09 21.0897 20.9731V16.1677ZM28.333 35.6011C26.9004 35.6011 25.5 35.1762 24.3089 34.3803C23.1177 33.5844 22.1893 32.4532 21.6411 31.1296C21.0928 29.8061 20.9494 28.3497 21.2289 26.9446C21.5084 25.5395 22.1982 24.2489 23.2112 23.2359C24.2242 22.2229 25.5149 21.5331 26.9199 21.2536C28.325 20.9741 29.7814 21.1175 31.1049 21.6658C32.4285 22.214 33.5597 23.1424 34.3556 24.3335C35.1516 25.5247 35.5764 26.9251 35.5764 28.3577C35.549 30.2702 34.7771 32.0967 33.4246 33.4492C32.0721 34.8017 30.2456 35.5737 28.333 35.6011Z" fill="#264B82"/>
</svg>
