<svg width="25" height="23" viewBox="0 0 25 23" fill="none" xmlns="http://www.w3.org/2000/svg">
<path d="M15.8177 19.3459V19.1493C15.8177 17.5855 14.4181 16.3132 12.6979 16.3132H4.89899C3.17886 16.3132 1.77986 17.5856 1.77986 19.1493V19.3462C0.999976 19.5919 1.00012 20.0439 1.00012 20.5672C1.00012 21.3503 1.69831 21.9851 2.55969 21.9851H15.038C15.8994 21.9851 16.5979 21.3503 16.5979 20.5672C16.5979 20.0436 16.5976 19.5915 15.8177 19.3459Z" stroke="#264B82" stroke-width="2"/>
<path d="M21.946 14.2825L11.2516 8.10803" stroke="#264B82" stroke-width="2"/>
<rect x="9.44824" y="2.46741" width="3.98351" height="7.96702" transform="rotate(30 9.44824 2.46741)" stroke="#264B82" stroke-width="2"/>
<path d="M7.30542 1.00006L15.24 5.58109" stroke="#264B82" stroke-width="2"/>
<path d="M3.22266 8.07227L11.1572 12.6533" stroke="#264B82" stroke-width="2"/>
</svg>
