<svg width="22" height="26" viewBox="0 0 22 26" fill="none" xmlns="http://www.w3.org/2000/svg">
<path d="M1 4.37866C0.447715 4.37866 0 4.82638 0 5.37866C0 5.93095 0.447715 6.37866 1 6.37866V4.37866ZM4.6938 5.37866L5.64067 5.05705L5.41025 4.37866H4.6938V5.37866ZM8.31367 16.5438L7.36071 16.8468L8.31367 16.5438ZM1 6.37866H4.6938V4.37866H1V6.37866ZM10.2196 18.9376H17.0287V16.9376H10.2196V18.9376ZM19.8832 16.8605L21.6211 11.4849L19.7181 10.8697L17.9802 16.2452L19.8832 16.8605ZM3.74693 5.70028L4.8282 8.88366L6.72194 8.24043L5.64067 5.05705L3.74693 5.70028ZM4.82211 8.86513L7.36071 16.8468L9.26663 16.2407L6.72803 8.25895L4.82211 8.86513ZM18.7666 7.56204H5.77507V9.56204H18.7666V7.56204ZM21.6211 11.4849C22.2475 9.54741 20.8028 7.56204 18.7666 7.56204V9.56204C19.4453 9.56204 19.9269 10.2238 19.7181 10.8697L21.6211 11.4849ZM17.0287 18.9376C18.3299 18.9376 19.4829 18.0986 19.8832 16.8605L17.9802 16.2452C17.8467 16.6579 17.4624 16.9376 17.0287 16.9376V18.9376ZM10.2196 16.9376C9.78407 16.9376 9.39863 16.6557 9.26663 16.2407L7.36071 16.8468C7.75671 18.092 8.91303 18.9376 10.2196 18.9376V16.9376Z" fill="#264B82"/>
<circle cx="9.36588" cy="22.8964" r="1.94" stroke="#264B82" stroke-width="1.8"/>
<circle cx="18.0461" cy="22.8964" r="1.94" stroke="#264B82" stroke-width="1.8"/>
<path d="M10.1152 4.66504C10.1152 4.2321 10.2542 3.7946 10.5322 3.35254C10.8102 2.90592 11.2158 2.53678 11.749 2.24512C12.2822 1.95345 12.9043 1.80762 13.6152 1.80762C14.276 1.80762 14.8594 1.93066 15.3652 2.17676C15.8711 2.41829 16.2607 2.7487 16.5342 3.16797C16.8122 3.58724 16.9512 4.04297 16.9512 4.53516C16.9512 4.92253 16.8714 5.26204 16.7119 5.55371C16.557 5.84538 16.3701 6.09831 16.1514 6.3125C15.9372 6.52214 15.5498 6.8776 14.9893 7.37891C14.8343 7.52018 14.709 7.64551 14.6133 7.75488C14.5221 7.8597 14.4538 7.95768 14.4082 8.04883C14.3626 8.13542 14.3262 8.22428 14.2988 8.31543C14.276 8.40202 14.2396 8.55697 14.1895 8.78027C14.1029 9.25423 13.8317 9.49121 13.376 9.49121C13.139 9.49121 12.9385 9.41374 12.7744 9.25879C12.6149 9.10384 12.5352 8.8737 12.5352 8.56836C12.5352 8.18555 12.5944 7.85514 12.7129 7.57715C12.8314 7.2946 12.9886 7.0485 13.1846 6.83887C13.3805 6.62467 13.6449 6.37174 13.9775 6.08008C14.2692 5.82487 14.4788 5.63346 14.6064 5.50586C14.7386 5.3737 14.848 5.22786 14.9346 5.06836C15.0257 4.90885 15.0713 4.73568 15.0713 4.54883C15.0713 4.18424 14.9346 3.87663 14.6611 3.62598C14.3923 3.37533 14.0436 3.25 13.6152 3.25C13.1139 3.25 12.7448 3.3776 12.5078 3.63281C12.2708 3.88346 12.0703 4.25488 11.9062 4.74707C11.7513 5.26204 11.4574 5.51953 11.0244 5.51953C10.7692 5.51953 10.5527 5.43066 10.375 5.25293C10.2018 5.07064 10.1152 4.87467 10.1152 4.66504ZM13.4512 12.1572C13.1732 12.1572 12.9294 12.0684 12.7197 11.8906C12.5146 11.7083 12.4121 11.4554 12.4121 11.1318C12.4121 10.8447 12.5124 10.6032 12.7129 10.4072C12.9134 10.2113 13.1595 10.1133 13.4512 10.1133C13.7383 10.1133 13.9798 10.2113 14.1758 10.4072C14.3717 10.6032 14.4697 10.8447 14.4697 11.1318C14.4697 11.4508 14.3672 11.7015 14.1621 11.8838C13.957 12.0661 13.7201 12.1572 13.4512 12.1572Z" fill="#264B82"/>
<path d="M10.5322 3.35254L11.802 4.15107L11.8057 4.1452L10.5322 3.35254ZM15.3652 2.17676L14.709 3.52565L14.7189 3.53037L15.3652 2.17676ZM16.5342 3.16797L15.2777 3.98739L15.284 3.99688L16.5342 3.16797ZM16.7119 5.55371L15.3959 4.83399L15.3915 4.84196L15.3872 4.84998L16.7119 5.55371ZM16.1514 6.3125L17.2006 7.3845L17.2008 7.38427L16.1514 6.3125ZM14.9893 7.37891L13.9893 6.26081L13.984 6.26561L13.9786 6.27047L14.9893 7.37891ZM14.6133 7.75488L13.4844 6.76712L13.4814 6.77061L14.6133 7.75488ZM14.4082 8.04883L15.7356 8.74745L15.7429 8.73362L15.7498 8.71965L14.4082 8.04883ZM14.2988 8.31543L12.8621 7.88441L12.8547 7.90893L12.8482 7.93369L14.2988 8.31543ZM14.1895 8.78027L12.7259 8.45172L12.7193 8.48109L12.7139 8.5107L14.1895 8.78027ZM12.7744 9.25879L11.7292 10.3347L11.7368 10.3421L11.7445 10.3493L12.7744 9.25879ZM12.7129 7.57715L14.0928 8.16531L14.0962 8.15724L12.7129 7.57715ZM13.1846 6.83887L14.2804 7.86319L14.2859 7.85732L14.2913 7.85139L13.1846 6.83887ZM13.9775 6.08008L12.9898 4.95121L12.9887 4.95217L13.9775 6.08008ZM14.9346 5.06836L13.6322 4.32415L13.6241 4.33835L13.6163 4.35272L14.9346 5.06836ZM14.6611 3.62598L13.6383 4.72322L13.6475 4.73171L14.6611 3.62598ZM12.5078 3.63281L13.5978 4.66337L13.607 4.65349L12.5078 3.63281ZM11.9062 4.74707L10.4832 4.27273L10.4762 4.29371L10.4699 4.31488L11.9062 4.74707ZM10.375 5.25293L9.2875 6.28605L9.30074 6.29999L9.31434 6.31359L10.375 5.25293ZM12.7197 11.8906L11.7232 13.0117L11.7363 13.0234L11.7497 13.0348L12.7197 11.8906ZM14.1758 10.4072L13.1151 11.4679L14.1758 10.4072ZM11.6152 4.66504C11.6152 4.56808 11.6432 4.40361 11.802 4.15106L9.26244 2.55401C8.86527 3.18558 8.61523 3.89611 8.61523 4.66504H11.6152ZM11.8057 4.1452C11.9273 3.94977 12.1266 3.74832 12.4689 3.5611L11.0292 0.929134C10.305 1.32525 9.69311 1.86208 9.25877 2.55988L11.8057 4.1452ZM12.4689 3.5611C12.7466 3.40921 13.113 3.30762 13.6152 3.30762V0.307617C12.6956 0.307617 11.8179 0.497696 11.0292 0.929134L12.4689 3.5611ZM13.6152 3.30762C14.0882 3.30762 14.4404 3.39492 14.709 3.52561L16.0214 0.827905C15.2784 0.466407 14.4639 0.307617 13.6152 0.307617V3.30762ZM14.7189 3.53037C15.0068 3.66784 15.1723 3.82565 15.2778 3.98737L17.7906 2.34857C17.3492 1.67175 16.7354 1.16875 16.0116 0.823144L14.7189 3.53037ZM15.284 3.99688C15.4029 4.17617 15.4512 4.34466 15.4512 4.53516H18.4512C18.4512 3.74127 18.2215 2.99831 17.7843 2.33906L15.284 3.99688ZM15.4512 4.53516C15.4512 4.71279 15.4161 4.79699 15.3959 4.83399L18.028 6.27343C18.3267 5.7271 18.4512 5.13227 18.4512 4.53516H15.4512ZM15.3872 4.84998C15.2989 5.01626 15.2022 5.14251 15.1019 5.24073L17.2008 7.38427C17.538 7.0541 17.815 6.6745 18.0366 6.25744L15.3872 4.84998ZM15.1022 5.2405C14.9149 5.42377 14.5506 5.75882 13.9893 6.26081L15.9892 8.49701C16.549 7.99638 16.9594 7.6205 17.2006 7.3845L15.1022 5.2405ZM13.9786 6.27047C13.7985 6.43467 13.6295 6.60132 13.4844 6.76713L15.7421 8.74264C15.7885 8.68969 15.8701 8.60569 15.9999 8.48734L13.9786 6.27047ZM13.4814 6.77061C13.3351 6.93879 13.1848 7.14157 13.0666 7.37801L15.7498 8.71965C15.7423 8.73475 15.7359 8.74595 15.7315 8.75321C15.7271 8.76047 15.7244 8.7645 15.7238 8.76525C15.7231 8.76632 15.7291 8.75763 15.7452 8.73915L13.4814 6.77061ZM13.0808 7.35021C12.9915 7.51985 12.918 7.69817 12.8621 7.88441L15.7356 8.74645L15.7356 8.74745L13.0808 7.35021ZM12.8482 7.93369C12.8176 8.04999 12.7757 8.2296 12.7259 8.45172L15.653 9.10883C15.7034 8.88433 15.7345 8.75404 15.7494 8.69717L12.8482 7.93369ZM12.7139 8.5107C12.711 8.52669 12.7397 8.35388 12.9341 8.18402C13.1384 8.00545 13.3402 7.99121 13.376 7.99121V10.9912C13.8675 10.9912 14.4327 10.8585 14.9082 10.4429C15.3737 10.0361 15.5814 9.50782 15.665 9.04985L12.7139 8.5107ZM13.376 7.99121C13.4234 7.99121 13.4994 7.99952 13.5885 8.03391C13.6788 8.0688 13.752 8.11883 13.8043 8.16827L11.7445 10.3493C12.202 10.7814 12.7772 10.9912 13.376 10.9912V7.99121ZM13.8196 8.18287C13.9234 8.28371 13.9829 8.39405 14.0123 8.47882C14.039 8.55597 14.0352 8.59443 14.0352 8.56836H11.0352C11.0352 9.12377 11.1838 9.80486 11.7292 10.3347L13.8196 8.18287ZM14.0352 8.56836C14.0352 8.33575 14.0716 8.21487 14.0928 8.1653L11.333 6.989C11.1172 7.49542 11.0352 8.03534 11.0352 8.56836H14.0352ZM14.0962 8.15724C14.1506 8.02746 14.2138 7.93439 14.2804 7.86319L12.0888 5.81454C11.7634 6.16261 11.5122 6.56173 11.3296 6.99706L14.0962 8.15724ZM14.2913 7.85139C14.4363 7.69293 14.6561 7.48004 14.9664 7.20799L12.9887 4.95217C12.6336 5.26345 12.3248 5.55642 12.0779 5.82635L14.2913 7.85139ZM14.9653 7.20894C15.2604 6.95073 15.5019 6.73171 15.6671 6.56652L13.5458 4.4452C13.4558 4.53522 13.278 4.69901 12.9898 4.95121L14.9653 7.20894ZM15.6671 6.56652C15.8982 6.33541 16.0954 6.07406 16.2529 5.784L13.6163 4.35272C13.6006 4.38167 13.579 4.41199 13.5458 4.4452L15.6671 6.56652ZM16.2369 5.81257C16.4599 5.42239 16.5713 4.99204 16.5713 4.54883H13.5713C13.5713 4.51902 13.5751 4.48042 13.5865 4.43711C13.5979 4.39365 13.6144 4.35526 13.6322 4.32415L16.2369 5.81257ZM16.5713 4.54883C16.5713 3.75552 16.252 3.04938 15.6747 2.52025L13.6475 4.73171C13.648 4.73208 13.6215 4.70675 13.598 4.65389C13.5743 4.60042 13.5713 4.55877 13.5713 4.54883H16.5713ZM15.6839 2.52878C15.0919 1.97688 14.3562 1.75 13.6152 1.75V4.75C13.683 4.75 13.7023 4.75977 13.6906 4.75556C13.6851 4.75358 13.6756 4.74951 13.6644 4.74269C13.6532 4.73586 13.6443 4.72875 13.6383 4.72318L15.6839 2.52878ZM13.6152 1.75C12.8831 1.75 12.0352 1.93733 11.4086 2.61214L13.607 4.65349C13.5754 4.68751 13.542 4.71418 13.5113 4.73357C13.4813 4.75255 13.4596 4.76093 13.4525 4.76339C13.4459 4.76565 13.4541 4.7621 13.4816 4.75806C13.5092 4.75401 13.5529 4.75 13.6152 4.75V1.75ZM11.4178 2.6023C10.9743 3.07143 10.6847 3.66828 10.4832 4.27273L13.3293 5.22141C13.4559 4.84149 13.5674 4.6955 13.5978 4.66333L11.4178 2.6023ZM10.4699 4.31488C10.4441 4.40052 10.4511 4.3121 10.5812 4.19809C10.6487 4.13897 10.7315 4.08948 10.8222 4.05734C10.9107 4.02601 10.9828 4.01953 11.0244 4.01953V7.01953C11.5623 7.01953 12.1073 6.84948 12.558 6.45474C12.9821 6.08324 13.2135 5.60859 13.3426 5.17926L10.4699 4.31488ZM11.0244 4.01953C11.0744 4.01953 11.152 4.02901 11.2403 4.06526C11.3291 4.10169 11.3946 4.15125 11.4357 4.19227L9.31434 6.31359C9.77818 6.77743 10.3782 7.01953 11.0244 7.01953V4.01953ZM11.4625 4.21981C11.4744 4.23234 11.515 4.27869 11.5522 4.36299C11.5914 4.45167 11.6152 4.55641 11.6152 4.66504H8.61523C8.61523 5.33357 8.90558 5.88403 9.2875 6.28605L11.4625 4.21981ZM13.4512 10.6572C13.4748 10.6572 13.5194 10.6616 13.5735 10.6813C13.6278 10.7011 13.6674 10.7275 13.6898 10.7465L11.7497 13.0348C12.2337 13.4451 12.8224 13.6572 13.4512 13.6572V10.6572ZM13.7163 10.7695C13.7851 10.8307 13.8433 10.9123 13.8791 11.0007C13.9126 11.0831 13.9121 11.1356 13.9121 11.1318H10.9121C10.9121 11.7996 11.1399 12.4932 11.7232 13.0117L13.7163 10.7695ZM13.9121 11.1318C13.9121 11.1662 13.9053 11.2318 13.8727 11.3104C13.8398 11.3898 13.7952 11.4468 13.7613 11.48L11.6645 9.33445C11.1675 9.82017 10.9121 10.4518 10.9121 11.1318H13.9121ZM13.7613 11.48C13.7283 11.5123 13.6744 11.5518 13.6027 11.5804C13.5322 11.6085 13.4761 11.6133 13.4512 11.6133V8.61328C12.7852 8.61328 12.1576 8.85258 11.6645 9.33445L13.7613 11.48ZM13.4512 11.6133C13.4211 11.6133 13.3595 11.6075 13.2838 11.5768C13.207 11.5456 13.1499 11.5027 13.1151 11.4679L15.2364 9.34657C14.7481 8.85819 14.1201 8.61328 13.4512 8.61328V11.6133ZM13.1151 11.4679C13.0803 11.4331 13.0374 11.376 13.0063 11.2992C12.9755 11.2235 12.9697 11.1619 12.9697 11.1318H15.9697C15.9697 10.4629 15.7248 9.83494 15.2364 9.34657L13.1151 11.4679ZM12.9697 11.1318C12.9697 11.1307 12.9701 11.0751 13.0045 10.9911C13.0411 10.9017 13.0994 10.8215 13.1656 10.7627L15.1587 13.0049C15.7372 12.4906 15.9697 11.8025 15.9697 11.1318H12.9697ZM13.1656 10.7627C13.1868 10.7438 13.2293 10.713 13.2921 10.6888C13.3554 10.6645 13.4125 10.6572 13.4512 10.6572V13.6572C14.0956 13.6572 14.6852 13.4258 15.1587 13.0049L13.1656 10.7627Z" fill="#E7EEF7"/>
</svg>
