<svg width="32" height="38" viewBox="0 0 32 38" fill="none" xmlns="http://www.w3.org/2000/svg">
<path d="M28.7709 10.8801V11.0236H28.9709C29.5683 11.0236 29.8857 11.4827 29.7829 11.9147L28.208 16.4963L28.208 16.4962L28.2074 16.498C28.1467 16.6799 28.0637 16.7803 27.9684 16.8399C27.8689 16.9021 27.7318 16.935 27.5364 16.935H21.5119C21.1893 16.935 20.9615 16.7258 20.8369 16.4852L19.0597 10.8801H28.7709ZM17.5397 6.16426L17.4915 6.0334H17.352H16.7782H13.4791C13.1989 6.0334 12.9354 6.17149 12.7459 6.36093C12.5565 6.55037 12.4184 6.81384 12.4184 7.09405C12.4184 7.37426 12.5565 7.63773 12.7459 7.82718C12.9354 8.01662 13.1989 8.15471 13.4791 8.15471H15.9169L16.5877 10.1673L18.7371 17.1887C19.0496 18.4285 20.1374 19.1998 21.3684 19.1998H27.393C28.6232 19.1998 29.7104 18.4296 30.0236 17.1911L31.5991 12.4647C32.2162 10.6134 30.8283 8.75881 28.9709 8.75881H18.4956L17.5397 6.16426Z" fill="#264B82" stroke="#264B82" stroke-width="0.4"/>
<path d="M20.7946 24.3645C21.8557 24.3645 22.7159 23.5043 22.7159 22.4432C22.7159 21.3821 21.8557 20.5219 20.7946 20.5219C19.7334 20.5219 18.8732 21.3821 18.8732 22.4432C18.8732 23.5043 19.7334 24.3645 20.7946 24.3645Z" fill="#264B82" stroke="#264B82" stroke-width="0.4"/>
<path d="M28.3981 24.3645C29.4592 24.3645 30.3194 23.5043 30.3194 22.4432C30.3194 21.3821 29.4592 20.5219 28.3981 20.5219C27.337 20.5219 26.4768 21.3821 26.4768 22.4432C26.4768 23.5043 27.337 24.3645 28.3981 24.3645Z" fill="#264B82" stroke="#264B82" stroke-width="0.4"/>
<path d="M26.3853 20.7173L27.0681 20.0344H26.1025H24.8115H24.4115V20.4344V33.918C24.4115 34.3823 24.0503 34.6656 23.6639 34.6656H3.58197C3.11772 34.6656 2.83443 34.3044 2.83443 33.918V4.08197C2.83443 3.61772 3.19564 3.33443 3.58197 3.33443H23.6639C24.1282 3.33443 24.4115 3.69564 24.4115 4.08197V7.66803V8.06803H24.8115H26.2459H26.6459V7.66803V4.08197C26.6459 2.42663 25.3193 1.1 23.6639 1.1H3.58197C1.92663 1.1 0.6 2.42663 0.6 4.08197V33.918C0.6 35.5734 1.92663 36.9 3.58197 36.9H23.6639C25.3193 36.9 26.6459 35.5734 26.6459 33.918V24.5943V24.4286L26.5287 24.3114C26.0349 23.8176 25.7852 23.2043 25.7852 22.4426V22.4095L25.7798 22.3769C25.7182 22.0075 25.7517 21.7228 25.8477 21.4759C25.9459 21.2235 26.1205 20.9821 26.3853 20.7173Z" fill="#264B82" stroke="#264B82" stroke-width="0.8"/>
<path d="M1.7171 25.4852H1.3171V25.8852V27.3196V27.7196H1.7171H25.5286H25.9286V27.3196V25.8852V25.4852H25.5286H1.7171Z" fill="#264B82" stroke="#264B82" stroke-width="0.8"/>
<path d="M13.48 32.1592C14.2518 32.1592 14.8775 31.5335 14.8775 30.7617C14.8775 29.9898 14.2518 29.3641 13.48 29.3641C12.7082 29.3641 12.0825 29.9898 12.0825 30.7617C12.0825 31.5335 12.7082 32.1592 13.48 32.1592Z" fill="#264B82" stroke="#264B82" stroke-width="0.5"/>
</svg>
