<svg width="76" height="68" viewBox="0 0 76 68" fill="none" xmlns="http://www.w3.org/2000/svg">
<g opacity="0.2">
<path d="M51.1777 59.4864V58.8926C51.1777 54.1685 47.1981 50.3248 42.3074 50.3248H20.133C15.2422 50.3248 11.2645 54.1686 11.2645 58.8926V59.4873C9.0471 60.2296 9.04752 61.595 9.04752 63.176C9.04752 65.5417 11.0326 67.4594 13.4818 67.4594H48.9608C51.41 67.4594 53.396 65.5417 53.396 63.176C53.3959 61.5942 53.3951 60.2284 51.1777 59.4864Z" fill="url(#paint0_linear)"/>
</g>
<path d="M45.1302 52.9V52.3411C45.1302 47.8949 41.1506 44.2773 36.2599 44.2773H14.0855C9.19472 44.2773 5.21698 47.895 5.21698 52.3411V52.9009C2.99958 53.5995 3 54.8846 3 56.3726C3 58.5991 4.98513 60.404 7.43424 60.404H42.9133C45.3624 60.404 47.3485 58.5991 47.3485 56.3726C47.3484 54.8838 47.3476 53.5984 45.1302 52.9Z" stroke="#8DA6D0" stroke-width="5"/>
<path d="M69.338 40.765L38.931 23.2095" stroke="#264B82" stroke-width="5"/>
<rect x="33.8057" y="7.17188" width="11.3261" height="22.6523" transform="rotate(30 33.8057 7.17188)" stroke="#264B82" stroke-width="5"/>
<path d="M27.7119 3L50.2719 16.025" stroke="#264B82" stroke-width="5"/>
<path d="M16.1031 23.1079L38.6631 36.1329" stroke="#264B82" stroke-width="5"/>
<defs>
<linearGradient id="paint0_linear" x1="31.2218" y1="50.3248" x2="31.2218" y2="67.4594" gradientUnits="userSpaceOnUse">
<stop offset="0.145833" stop-color="#264B82"/>
<stop offset="1" stop-color="#264B82" stop-opacity="0"/>
</linearGradient>
</defs>
</svg>
