<svg width="67" height="68" viewBox="0 0 67 68" fill="none" xmlns="http://www.w3.org/2000/svg">
<g opacity="0.1">
<path fill-rule="evenodd" clip-rule="evenodd" d="M13.6519 15H5V10H17.2342L20.2911 19H66.4357L56.2495 50.5063H25.1021L16.125 22.2809L13.6519 15ZM30.0631 67.4999C33.7159 67.4999 36.6771 64.5388 36.6771 60.886C36.6771 57.2332 33.7159 54.2721 30.0631 54.2721C26.4104 54.2721 23.4492 57.2332 23.4492 60.886C23.4492 64.5388 26.4104 67.4999 30.0631 67.4999ZM59.6517 60.886C59.6517 64.5388 56.6905 67.4999 53.0378 67.4999C49.385 67.4999 46.4238 64.5388 46.4238 60.886C46.4238 57.2332 49.385 54.2721 53.0378 54.2721C56.6905 54.2721 59.6517 57.2332 59.6517 60.886Z" fill="url(#paint0_linear)"/>
</g>
<path d="M10.443 3L12.8102 2.19596L12.2342 0.5H10.443V3ZM21.9304 38.5063L19.548 39.2641L20.1021 41.0063H21.9304V38.5063ZM49.4304 38.5063V41.0063H51.2495L51.8091 39.2754L49.4304 38.5063ZM58 12L60.3788 12.7691L61.4357 9.5H58V12ZM0 5.5H10.443V0.5H0V5.5ZM21.9304 41.0063H49.4304V36.0063H21.9304V41.0063ZM51.8091 39.2754L60.3788 12.7691L55.6212 11.2309L47.0516 37.7373L51.8091 39.2754ZM8.07586 3.80404L11.1328 12.804L15.8672 11.196L12.8102 2.19596L8.07586 3.80404ZM11.1176 12.7577L19.548 39.2641L24.3128 37.7486L15.8824 11.2423L11.1176 12.7577ZM58 9.5H13.5V14.5H58V9.5Z" fill="#8DA6D0"/>
<circle cx="25.0633" cy="51.3861" r="4.61392" stroke="#8DA6D0" stroke-width="4"/>
<circle cx="48.038" cy="51.3861" r="4.61392" stroke="#8DA6D0" stroke-width="4"/>
<path d="M26 19.4737L35.9541 29.4277L45.9081 19.4737" stroke="#264B82" stroke-width="5"/>
<path d="M35.9127 28.9358L35.9127 0.999987" stroke="#264B82" stroke-width="6"/>
<defs>
<linearGradient id="paint0_linear" x1="35.7178" y1="10" x2="35.7178" y2="67.4999" gradientUnits="userSpaceOnUse">
<stop offset="0.145833" stop-color="#264B82"/>
<stop offset="1" stop-color="#264B82" stop-opacity="0"/>
</linearGradient>
</defs>
</svg>
