<svg width="67" height="74" viewBox="0 0 67 74" fill="none" xmlns="http://www.w3.org/2000/svg">
<g opacity="0.1">
<path fill-rule="evenodd" clip-rule="evenodd" d="M13.6519 20.7173H5V15.7173H17.2342L20.2911 24.7173H66.4357L56.2495 56.2236H25.1021L16.125 27.9982L13.6519 20.7173ZM30.0631 73.2172C33.7159 73.2172 36.6771 70.2561 36.6771 66.6033C36.6771 62.9505 33.7159 59.9894 30.0631 59.9894C26.4104 59.9894 23.4492 62.9505 23.4492 66.6033C23.4492 70.2561 26.4104 73.2172 30.0631 73.2172ZM59.6517 66.6033C59.6517 70.2561 56.6905 73.2172 53.0378 73.2172C49.385 73.2172 46.4238 70.2561 46.4238 66.6033C46.4238 62.9505 49.385 59.9894 53.0378 59.9894C56.6905 59.9894 59.6517 62.9505 59.6517 66.6033Z" fill="url(#paint0_linear)"/>
</g>
<path d="M10.443 8.71729L12.8102 7.91324L12.2342 6.21729H10.443V8.71729ZM21.9304 44.2236L19.548 44.9813L20.1021 46.7236H21.9304V44.2236ZM49.4304 44.2236V46.7236H51.2495L51.8091 44.9927L49.4304 44.2236ZM58 17.7173L60.3788 18.4864L61.4357 15.2173H58V17.7173ZM0 11.2173H10.443V6.21729H0V11.2173ZM21.9304 46.7236H49.4304V41.7236H21.9304V46.7236ZM51.8091 44.9927L60.3788 18.4864L55.6212 16.9482L47.0516 43.4545L51.8091 44.9927ZM8.07586 9.52133L11.1328 18.5213L15.8672 16.9132L12.8102 7.91324L8.07586 9.52133ZM11.1176 18.475L19.548 44.9813L24.3128 43.4659L15.8824 16.9596L11.1176 18.475ZM58 15.2173H13.5V20.2173H58V15.2173Z" fill="#8DA6D0"/>
<circle cx="25.0633" cy="57.1034" r="4.61392" stroke="#8DA6D0" stroke-width="4"/>
<circle cx="48.038" cy="57.1034" r="4.61392" stroke="#8DA6D0" stroke-width="4"/>
<path d="M31.9673 26.3672H38.5151V32.7173H31.9673V26.3672ZM23.9473 10.5469C24.123 6.37207 25.5806 3.41309 28.3198 1.66992C30.0483 0.556641 32.1724 0 34.6919 0C38.0024 0 40.749 0.791016 42.9316 2.37305C45.1289 3.95508 46.2275 6.29883 46.2275 9.4043C46.2275 11.3086 45.7515 12.9126 44.7993 14.2163C44.2427 15.0073 43.1733 16.0181 41.5913 17.2485L40.0312 18.457C39.1816 19.1162 38.6177 19.8853 38.3394 20.7642C38.1636 21.3208 38.0684 22.1851 38.0537 23.3569H32.1211C32.209 20.8813 32.4434 19.1748 32.8242 18.2373C33.2051 17.2852 34.1865 16.1938 35.7686 14.9634L37.3726 13.7109C37.8999 13.3154 38.3247 12.8833 38.647 12.4146C39.2329 11.6089 39.5259 10.7227 39.5259 9.75586C39.5259 8.64258 39.1963 7.63184 38.5371 6.72363C37.8926 5.80078 36.7061 5.33936 34.9775 5.33936C33.2783 5.33936 32.0698 5.90332 31.3521 7.03125C30.6489 8.15918 30.2974 9.33105 30.2974 10.5469H23.9473Z" fill="#264B82"/>
<defs>
<linearGradient id="paint0_linear" x1="35.7178" y1="15.7173" x2="35.7178" y2="73.2172" gradientUnits="userSpaceOnUse">
<stop offset="0.145833" stop-color="#264B82"/>
<stop offset="1" stop-color="#264B82" stop-opacity="0"/>
</linearGradient>
</defs>
</svg>
