<svg width="40" height="40" viewBox="0 0 40 40" fill="none" xmlns="http://www.w3.org/2000/svg">
<path d="M28.0828 11.3498V0.716431H0.999512V33.6331C1.01262 35.1304 1.61438 36.5624 2.67472 37.6196C3.73507 38.6769 5.16885 39.2744 6.66618 39.2831C6.66618 39.2831 29.9995 39.2831 30.3162 39.1164C31.5862 38.8466 32.7299 38.1607 33.5661 37.1675C34.4023 36.1743 34.8833 34.9305 34.9328 33.6331C34.9653 32.8923 34.8326 32.1536 34.5444 31.4704C34.2561 30.7872 33.8195 30.1767 33.2662 29.6831C32.4795 28.8836 31.4679 28.343 30.3662 28.1331C30.0162 28.1331 29.6828 27.9664 29.3328 27.9664H28.2995V21.4498L26.0828 23.1164V27.9164H6.83285V30.1498C7.28293 30.1498 7.72859 30.2387 8.14421 30.4114C8.55983 30.5842 8.93722 30.8373 9.25471 31.1564C9.57219 31.4754 9.82351 31.854 9.99423 32.2705C10.165 32.6869 10.2517 33.133 10.2495 33.5831C10.2475 34.4377 9.93275 35.2621 9.36476 35.9007C8.79677 36.5393 8.01475 36.948 7.16618 37.0498H6.99951C6.09182 37.0498 5.22105 36.6903 4.57765 36.0501C3.93425 35.4098 3.57058 34.5408 3.56618 33.6331V2.94976H26.1995V13.5664L28.0828 11.3498ZM29.9662 37.0498H11.2828C12.0291 36.0637 12.4487 34.8692 12.4828 33.6331C12.5077 32.3818 12.0818 31.1632 11.2828 30.1998H29.9662C30.5661 30.3861 31.1297 30.6736 31.6328 31.0498C31.9579 31.3596 32.2169 31.7319 32.3945 32.1443C32.5721 32.5567 32.6645 33.0007 32.6662 33.4498C32.699 34.2762 32.4421 35.0882 31.9401 35.7454C31.438 36.4027 30.7221 36.864 29.9162 37.0498H29.9662Z" fill="#264B82" stroke="#264B82" stroke-width="0.7" stroke-miterlimit="10"/>
<path d="M24.1333 18.2001L31.1667 11.1668L33.05 13.0668L26.0333 20.0834L24.1333 18.2001ZM23.1167 20.2501L23.9667 21.1168L22.6 21.6334L23.1167 20.2501ZM36.45 9.63343L34.6 11.5168L32.7167 9.63343L34.6 7.7501L36.45 9.63343ZM25.85 13.3334L21.5667 17.6168L19 25.4001L25.85 23.0001L28.0833 21.3334L39.5667 9.8501L34.5667 4.8501L28.0833 11.3501L25.85 13.3334Z" fill="#264B82"/>
<path d="M22.6005 8.26666H6.31714V11.0167H22.6005V8.26666Z" fill="#264B82"/>
<path d="M22.4331 8.59974V10.8331H6.66643V8.59974H22.4331ZM22.7664 8.08307H5.96643V11.4164H22.7664V8.08307Z" fill="#264B82"/>
<path d="M17.9671 12.8837H6.31714V15.6337H17.9671V12.8837Z" fill="#264B82"/>
<path d="M17.7998 13.0666V15.2833H6.4831V13.0666H17.7998ZM18.3164 12.7166H5.96643V15.9666H18.3164V12.7166Z" fill="#264B82"/>
<path d="M15.7505 17.3501H6.31714V20.1001H15.7505V17.3501Z" fill="#264B82"/>
<path d="M15.5664 17.5166V19.7499H6.4831V17.5166H15.5664ZM16.0831 17.1666H5.96643V20.4999H16.0831V17.1666Z" fill="#264B82"/>
</svg>
