<svg width="30" height="30" viewBox="0 0 30 30" fill="none" xmlns="http://www.w3.org/2000/svg">
<path d="M8.79792 6.49752C9.10962 6.18912 9.10962 5.68122 8.79792 5.36982L7.67082 4.24182C7.36272 3.93372 6.85452 3.93372 6.54282 4.24182C6.23442 4.55352 6.23442 5.06112 6.54282 5.36982L7.67082 6.49752C7.98132 6.80922 8.48982 6.80922 8.79792 6.49752Z" fill="#264B82"/>
<path d="M15.7974 4.26186C16.0152 4.26186 16.2147 4.17096 16.3605 4.02456C16.5045 3.88086 16.5942 3.68226 16.5942 3.46026V1.86606C16.5942 1.42716 16.2366 1.06836 15.7974 1.06836C15.4683 1.06836 15.1833 1.27116 15.0633 1.55736L15 1.86936V3.46446C15 3.90276 15.3576 4.26186 15.7974 4.26186Z" fill="#264B82"/>
<path d="M4.6364 12.2324H3.0419C2.6042 12.2324 2.2439 12.5915 2.2439 13.0304C2.2439 13.4693 2.6042 13.8281 3.0419 13.8281H4.6361C5.0756 13.8281 5.4338 13.4693 5.4338 13.0304C5.4338 12.5915 5.0756 12.2324 4.6364 12.2324Z" fill="#264B82"/>
<path d="M24.5819 5.36997C24.2732 5.06157 23.7653 5.06157 23.4533 5.36997L22.3262 6.49767C22.0172 6.80937 22.0172 7.31697 22.3262 7.62567C22.6367 7.93647 23.1449 7.93647 23.4533 7.62567L24.5819 6.49767C24.893 6.18927 24.893 5.68167 24.5819 5.36997Z" fill="#264B82"/>
<path d="M26.9581 13.8242H25.3639C24.9262 13.8242 24.5659 14.1833 24.5659 14.6222C24.5659 15.0608 24.9262 15.4184 25.3639 15.4184H26.9581C27.3967 15.4184 27.7555 15.0608 27.7555 14.6222C27.7558 14.183 27.3967 13.8242 26.9581 13.8242Z" fill="#264B82"/>
<path d="M14.9998 7.5332C11.011 7.5332 7.76587 10.7846 7.76587 14.7815C7.76587 17.1281 8.87557 19.2839 10.7614 20.6471V23.6795H12.6496V20.144C12.6496 19.817 12.4807 19.5134 12.2023 19.3412C10.6066 18.3542 9.65407 16.6499 9.65407 14.7818C9.65407 11.8259 12.0526 9.4214 15.0001 9.4214C17.9479 9.4214 20.3446 11.8259 20.3446 14.7818C20.3446 16.6505 19.393 18.3545 17.7976 19.3412C17.5198 19.5125 17.3503 19.817 17.3503 20.144V23.6795H19.2385V20.6471C21.1228 19.2842 22.2328 17.1287 22.2328 14.7815C22.2325 10.7849 18.9886 7.5332 14.9998 7.5332Z" fill="#264B82"/>
<path d="M14.9998 27.0452C14.0215 27.0452 13.1905 26.441 12.8443 25.5674H10.8733C11.2804 27.5165 12.9724 28.9331 14.9998 28.9331C17.0266 28.9331 18.7192 27.5162 19.126 25.5674H17.1541C16.8088 26.4413 15.9784 27.0452 14.9998 27.0452Z" fill="#264B82"/>
</svg>
