<svg viewBox="0 0 48 48" xmlns="http://www.w3.org/2000/svg"><path fill="#db2b21" d="M-.1 0h48v48h-48z"/><path d="M34.1 29c-.1 1.6-.5 3.1-1.7 4.3s-2.7 1.6-4.3 1.7h-4.2s-2.8 0-4.2-.1c-1.6-.1-3.1-.5-4.3-1.7s-1.6-2.7-1.7-4.3c-.1-1.4-.1-2.8-.1-4.2s0-2.8.1-4.2c.1-1.6.5-3.1 1.7-4.3s2.7-1.6 4.3-1.7c1.4-.1 2.8-.1 4.2-.1s2.8 0 4.2.1c1.6.1 3.1.5 4.3 1.7s1.6 2.7 1.7 4.3c.1 1.4.1 2.8.1 4.2s0 2.8-.1 4.3zM17.9 16.7c-.5.2-.8.4-1.2.8s-.6.7-.8 1.2c-.5 1.4-.4 4.6-.4 6.1s-.1 4.7.4 6.1c.2.5.4.8.8 1.2s.7.6 1.2.8c1.4.5 4.6.4 6.1.4s4.7.1 6.1-.4c.5-.2.8-.4 1.2-.8s.6-.7.8-1.2c.5-1.4.4-4.6.4-6.1s.1-4.7-.4-6.1c-.2-.5-.4-.8-.8-1.2s-.7-.6-1.2-.8c-1.4-.5-4.6-.4-6.1-.4s-4.8-.1-6.1.4zm6 13.3c-2.9 0-5.3-2.4-5.3-5.3s2.4-5.3 5.3-5.3 5.3 2.4 5.3 5.3-2.4 5.3-5.3 5.3zm0-8.7c-1.9 0-3.4 1.5-3.4 3.4s1.5 3.4 3.4 3.4 3.4-1.5 3.4-3.4-1.5-3.4-3.4-3.4zm5.5-.8c-.7 0-1.2-.5-1.2-1.2s.5-1.2 1.2-1.2 1.2.5 1.2 1.2-.5 1.2-1.2 1.2z" fill="#fff"/></svg>