<svg width="22" height="23" viewBox="0 0 22 23" fill="none" xmlns="http://www.w3.org/2000/svg">
<circle cx="9.85074" cy="19.5288" r="1.94" stroke="#264B82" stroke-width="1.8"/>
<circle cx="18.5309" cy="19.5288" r="1.94" stroke="#264B82" stroke-width="1.8"/>
<path d="M18.8 4.50573H17.5C17.1058 5.01105 16.6331 5.44995 16.1 5.80573L15.7 6.10572V6.50573H18.8C18.9609 6.4884 19.1235 6.51478 19.2707 6.5821C19.4179 6.64943 19.5442 6.75519 19.6363 6.88826C19.7285 7.02133 19.783 7.17679 19.7942 7.33825C19.8054 7.49971 19.7729 7.6612 19.7 7.80573L18 13.2057C17.934 13.4164 17.8001 13.5994 17.6192 13.726C17.4383 13.8526 17.2206 13.9158 17 13.9057H10.2C9.99653 13.8946 9.80131 13.8217 9.64046 13.6966C9.47962 13.5715 9.36083 13.4002 9.3 13.2057L7.2 6.50573H11.2V5.90573C11.193 5.42239 11.2955 4.94374 11.5 4.50573H6.5L5.7 2.00573L5.4 1.30573H1C0.734784 1.30573 0.48043 1.41108 0.292893 1.59862C0.105357 1.78615 0 2.04051 0 2.30573C0.0225288 2.56337 0.135122 2.80484 0.318001 2.98772C0.500881 3.1706 0.742352 3.2832 1 3.30573H4L4.8 5.80573L7.4 13.8057C7.58824 14.4048 7.95969 14.9296 8.46202 15.3064C8.96435 15.6831 9.57223 15.8927 10.2 15.9057H17C17.6412 15.8986 18.2645 15.6928 18.7838 15.3167C19.3032 14.9406 19.6932 14.4127 19.9 13.8057L21.6 8.40573C21.7635 7.96119 21.8156 7.48337 21.7518 7.01403C21.688 6.54469 21.5102 6.09813 21.234 5.71337C20.9578 5.32861 20.5915 5.01737 20.1672 4.80685C19.7429 4.59633 19.2735 4.49294 18.8 4.50573Z" fill="#264B82"/>
<path d="M13.8 1.60574C14.0825 1.56615 14.3693 1.63786 14.6 1.80574C14.7041 1.8645 14.7882 1.953 14.8417 2.0599C14.8951 2.1668 14.9154 2.28722 14.9 2.40574C14.9244 2.52992 14.919 2.65812 14.8842 2.77981C14.8495 2.90149 14.7863 3.0132 14.7 3.10574C14.4728 3.44456 14.1631 3.71989 13.8 3.90574C13.4204 4.15779 13.1108 4.50181 12.9 4.90574C12.6976 5.19935 12.5926 5.54919 12.6 5.90574V6.40574H14.3V6.00574C14.32 5.7931 14.3884 5.58786 14.5 5.40574C14.6946 5.10104 14.9722 4.8582 15.3 4.70574C15.795 4.4136 16.2079 4.00074 16.5 3.50574C16.7182 3.14493 16.8227 2.72679 16.8 2.30574C16.8078 1.97972 16.7396 1.65636 16.6007 1.36128C16.4619 1.06621 16.2562 0.807526 16 0.605739C15.3884 0.173182 14.6478 -0.0384122 13.9 0.00573923C12.8121 -0.0237206 11.7378 0.253509 10.8 0.805739L11.5 2.20574C12.2149 1.84346 12.9992 1.63885 13.8 1.60574Z" fill="#264B82"/>
<path d="M13.5 7.50573C13.3528 7.49354 13.2047 7.51412 13.0663 7.56599C12.928 7.61786 12.8029 7.69974 12.7 7.80573C12.5992 7.91233 12.5207 8.03802 12.4691 8.17541C12.4176 8.3128 12.3941 8.45911 12.4 8.60573C12.4 9.00573 12.5 9.30573 12.7 9.40573C12.8066 9.50657 12.9323 9.58505 13.0697 9.63658C13.2071 9.6881 13.3534 9.71161 13.5 9.70573C13.6483 9.72148 13.7983 9.70385 13.9389 9.65414C14.0795 9.60443 14.2072 9.52389 14.3127 9.41843C14.4182 9.31296 14.4987 9.18524 14.5484 9.04462C14.5981 8.904 14.6157 8.75404 14.6 8.60573C14.6059 8.45911 14.5824 8.3128 14.5308 8.17541C14.4793 8.03802 14.4008 7.91233 14.3 7.80573C14.2 7.60573 13.9 7.50573 13.5 7.50573Z" fill="#264B82"/>
</svg>
