<svg width="38" height="43" viewBox="0 0 38 43" fill="none" xmlns="http://www.w3.org/2000/svg">
<path fill-rule="evenodd" clip-rule="evenodd" d="M32.3331 31.6997L27.333 36.6164L24.1664 33.4831L25.0664 32.5997L27.333 34.8497L31.3997 30.8164L32.3331 31.6997Z" fill="#264B82"/>
<path d="M27.3173 37.7998L22.9673 33.4831L25.0506 31.4331L27.3173 33.6831L31.384 29.6331L33.4673 31.6998L27.3173 37.7998Z" fill="#264B82"/>
<path d="M18.6836 19.0336H6.75024V22.3669H18.6836V19.0336Z" fill="#264B82"/>
<path d="M12.7169 25.8831H6.75024V29.2164H12.7169V25.8831Z" fill="#264B82"/>
<path d="M18.6836 12.1833H6.75024V15.5166H18.6836V12.1833Z" fill="#264B82"/>
<path d="M5.26648 34.1168C4.82445 34.1168 4.40053 33.9412 4.08797 33.6286C3.77541 33.316 3.59981 32.8921 3.59981 32.4501V10.3668C3.59981 9.92473 3.77541 9.50081 4.08797 9.18825C4.40053 8.87569 4.82445 8.70009 5.26648 8.70009H20.1665C20.6085 8.70009 21.0324 8.87569 21.345 9.18825C21.6576 9.50081 21.8331 9.92473 21.8331 10.3668V22.1501C22.8775 21.558 23.9995 21.1149 25.1665 20.8334V10.3668C25.1665 9.04068 24.6397 7.76891 23.702 6.83123C22.7643 5.89354 21.4926 5.36676 20.1665 5.36676H5.26648C3.9404 5.36676 2.66863 5.89354 1.73095 6.83123C0.793263 7.76891 0.266479 9.04068 0.266479 10.3668V32.4334C0.266479 33.7595 0.793263 35.0313 1.73095 35.969C2.66863 36.9066 3.9404 37.4334 5.26648 37.4334H16.0331C15.67 36.356 15.4514 35.2351 15.3831 34.1001L5.26648 34.1168Z" fill="#264B82"/>
<path d="M30.5334 20.6667V5.30005C30.5334 3.97397 30.0066 2.7022 29.0689 1.76452C28.1312 0.826839 26.8595 0.300054 25.5334 0.300054H10.6667C9.43768 0.298251 8.25105 0.749173 7.33337 1.56672L9.55004 4.06672C9.85319 3.78283 10.2514 3.62235 10.6667 3.61672H25.5667C26.0087 3.61672 26.4327 3.79232 26.7452 4.10488C27.0578 4.41744 27.2334 4.84136 27.2334 5.28339V20.5001H28.25C29.0146 20.4891 29.7786 20.5449 30.5334 20.6667Z" fill="#264B82"/>
<path d="M30.5333 21.4V20.6666C29.769 20.5261 28.9937 20.4536 28.2166 20.45H27.2V21.35L30.5333 21.4Z" fill="#264B82"/>
<path d="M28.2161 23.7833C26.3266 23.78 24.4785 24.3373 22.9059 25.3846C21.3332 26.432 20.1065 27.9223 19.3812 29.6671C18.6558 31.4118 18.4643 33.3325 18.8309 35.1862C19.1975 37.0398 20.1057 38.743 21.4407 40.0802C22.7756 41.4175 24.4772 42.3287 26.3302 42.6985C28.1831 43.0684 30.1042 42.8802 31.8502 42.1579C33.5962 41.4356 35.0887 40.2115 36.1388 38.6407C37.1889 37.0699 37.7494 35.2228 37.7494 33.3333C37.7516 32.0799 37.5066 30.8385 37.0285 29.6799C36.5504 28.5213 35.8485 27.4684 34.9631 26.5814C34.0776 25.6944 33.0259 24.9907 31.8682 24.5106C30.7105 24.0304 29.4694 23.7833 28.2161 23.7833ZM28.2161 39.5333C27.164 39.5299 26.1301 39.2589 25.2116 38.7458C24.2932 38.2326 23.5204 37.4942 22.9661 36.5999C22.3338 35.6041 22.0038 34.4462 22.0161 33.2666C22.0161 32.0404 22.3797 30.8417 23.061 29.8221C23.7422 28.8025 24.7105 28.0078 25.8434 27.5386C26.9763 27.0693 28.223 26.9465 29.4256 27.1857C30.6283 27.425 31.7331 28.0155 32.6001 28.8826C33.4672 29.7496 34.0577 30.8544 34.297 32.0571C34.5362 33.2597 34.4134 34.5063 33.9441 35.6392C33.4749 36.7722 32.6802 37.7405 31.6606 38.4217C30.641 39.103 29.4423 39.4666 28.2161 39.4666V39.5333Z" fill="#264B82"/>
</svg>
