<svg width="38" height="36" viewBox="0 0 38 36" fill="none" xmlns="http://www.w3.org/2000/svg">
<path d="M26.417 3.0001V0.833435H23.0836V3.0001H14.917V0.833435H11.5836V3.0001H0.0836182V35.1668H37.917V3.0001H26.417ZM14.917 8.5001V6.33344H23.0836V8.16677H26.417V6.33344H34.5836V10.0001H3.41695V6.33344H11.5836V8.5001H14.917ZM3.41695 32.0001V13.3334H34.7503V32.0001H3.41695Z" fill="#264B82"/>
<path d="M27.0838 19.5002L24.9172 17.3336L24.5838 17.0002L24.2505 17.3336L18.7505 22.8336L15.0838 19.1669L14.7505 18.8336L14.4172 19.1669L12.3338 21.3336L12.0005 21.6669L12.3338 22.0002L18.5005 28.1669L18.8338 28.5002L19.1672 28.1669L27.1672 20.1669L27.5005 19.8336L27.0838 19.5002Z" fill="#264B82"/>
</svg>
