<?xml version="1.0" encoding="UTF-8"?>
<svg enable-background="new 0 0 217.5 48" version="1.1" viewBox="0 0 217.5 48" xml:space="preserve" xmlns="http://www.w3.org/2000/svg" xmlns:xlink="http://www.w3.org/1999/xlink">
<style type="text/css">
	.st0{fill:#DB2B21;}
	.st1{clip-path:url(#h);fill:#DB2B21;}
	.st2{clip-path:url(#f);fill:#DB2B21;}
	.st3{fill:#B4B1B1;}
	.st4{clip-path:url(#d);fill:#B4B1B1;}
	.st5{clip-path:url(#b);fill:#B4B1B1;}
	.st6{clip-path:url(#j);fill:#B4B1B1;}
</style>
<polygon class="st0" points="59.5 0.2 59.5 16.9 63.9 16.9 63.9 4.1 69.7 4.1 69.7 16.9 74.2 16.9 74.2 0.2"/>
	<defs>
		<rect id="i" width="217.5" height="48"/>
	</defs>
	<clipPath id="h">
		<use xlink:href="#i"/>
	</clipPath>
	<path class="st1" d="m83.5 13.1c0.8 0 1.5-0.1 1.9-0.2s0.7-0.4 0.9-0.8 0.3-1 0.3-1.8v-3.6c0-0.6-0.1-1.1-0.2-1.5s-0.3-0.6-0.5-0.8-0.5-0.3-0.9-0.4-0.9-0.1-1.5-0.1c-0.8 0-1.5 0.1-1.9 0.2s-0.7 0.4-0.9 0.7c-0.2 0.4-0.3 1-0.3 1.8v3.8c0 0.8 0.1 1.4 0.3 1.8s0.5 0.6 0.9 0.8 1 0.1 1.9 0.1m0 3.9c-1.2 0-2.3-0.1-3.2-0.3s-1.7-0.5-2.4-0.9-1.2-1.1-1.6-1.9-0.6-1.8-0.6-3.1v-4.6c0-1.2 0.2-2.3 0.6-3.1s0.9-1.4 1.6-1.9 1.5-0.7 2.4-0.9 2-0.3 3.2-0.3 2.3 0.1 3.2 0.3 1.7 0.5 2.4 0.9 1.2 1.1 1.6 1.9 0.6 1.8 0.6 3.1v4.7c0 1.2-0.2 2.3-0.6 3.1s-0.9 1.4-1.6 1.9c-0.7 0.4-1.5 0.7-2.4 0.9-0.9 0.1-2 0.2-3.2 0.2"/>
	<path class="st1" d="m97.1 8.7h3c0.6 0 1-0.1 1.3-0.2s0.4-0.3 0.5-0.7c0.1-0.3 0.1-0.9 0.1-1.6 0-0.6 0-1.1-0.1-1.4s-0.3-0.5-0.6-0.7-0.7-0.2-1.3-0.2h-3v4.8zm0 8.2h-4.4v-16.7h8.4c1 0 1.9 0.1 2.7 0.3 0.7 0.2 1.3 0.6 1.7 1.1s0.8 1.1 1 1.9 0.3 1.7 0.3 2.8c0 1.2-0.1 2.2-0.3 3s-0.5 1.4-0.9 1.9-1 0.8-1.7 1-1.7 0.3-2.9 0.3h-3.9v4.4z"/>
<polygon class="st0" points="106.6 0.2 106.6 4.1 110.9 4.1 110.9 16.9 115.4 16.9 115.4 4.1 119.8 4.1 119.8 0.2"/>
<path class="st0" d="m127.5 3.5l2.1 7.2h-4.1l2-7.2zm-3.5-3.3l-5 16.7h4.6l0.8-2.9h6l0.9 2.9h4.5l-5.1-16.7h-6.7z"/>
	<defs>
		<rect id="g" width="217.5" height="48"/>
	</defs>
	<clipPath id="f">
		<use xlink:href="#g"/>
	</clipPath>
	<path class="st2" d="m138.3 0.2h13.5v16.7h-4.5v-12.8h-4.8v7c0 1.2-0.2 2.3-0.5 3.2-0.4 0.9-0.9 1.6-1.7 2-0.7 0.5-1.7 0.7-2.8 0.7-0.8 0-1.6-0.1-2.3-0.2v-3.6c0.3 0.1 0.8 0.2 1.4 0.2s1-0.2 1.3-0.5c0.2-0.3 0.4-0.9 0.4-1.7v-11z"/>
<polygon class="st3" points="59.5 23.7 71.7 23.7 71.7 38.8 70 38.8 70 25.2 61.2 25.2 61.2 38.8 59.5 38.8"/>
	<defs>
		<rect id="e" width="217.5" height="48"/>
	</defs>
	<clipPath id="d">
		<use xlink:href="#e"/>
	</clipPath>
	<path class="st4" d="m75.4 34.5c0.1 0.8 0.3 1.4 0.6 1.8s0.8 0.7 1.4 0.9 1.4 0.2 2.5 0.2 1.9-0.1 2.5-0.2c0.6-0.2 1-0.5 1.4-0.9 0.3-0.4 0.5-1 0.6-1.8s0.2-1.9 0.2-3.3c0-1.5 0-2.6-0.2-3.3-0.1-0.8-0.3-1.4-0.6-1.8s-0.8-0.7-1.3-0.9c-0.7-0.1-1.5-0.2-2.6-0.2s-1.9 0.1-2.5 0.2c-0.6 0.2-1 0.4-1.3 0.9-0.3 0.4-0.5 1-0.6 1.8s-0.2 1.9-0.2 3.3c-0.1 1.5 0 2.6 0.1 3.3m-1.6-7.3c0.2-1 0.5-1.8 1-2.3s1.1-0.9 1.9-1.1 1.9-0.3 3.2-0.3 2.4 0.1 3.2 0.3 1.4 0.6 1.9 1.1 0.8 1.3 1 2.3 0.3 2.3 0.3 4-0.1 3-0.3 4-0.5 1.8-1 2.3-1.1 0.9-1.9 1.1-1.9 0.3-3.2 0.3-2.4-0.1-3.2-0.3-1.4-0.6-1.9-1.1-0.8-1.3-1-2.3-0.3-2.3-0.3-4c0.1-1.6 0.1-3 0.3-4"/>
	<path class="st4" d="m97.8 33.7h1.6c0 1.3-0.2 2.4-0.5 3.1s-0.9 1.3-1.8 1.6-2.1 0.5-3.7 0.5c-1.2 0-2.2-0.1-2.9-0.3s-1.4-0.6-1.8-1.1c-0.5-0.5-0.8-1.3-1-2.3s-0.3-2.3-0.3-3.9 0.1-2.9 0.3-3.9 0.5-1.8 1-2.3c0.5-0.6 1.1-0.9 1.8-1.2 0.8-0.2 1.7-0.3 2.9-0.3s2.2 0.1 2.9 0.3 1.3 0.5 1.7 0.9 0.7 0.9 0.8 1.5c0.2 0.6 0.3 1.4 0.3 2.3h-1.6c-0.1-1-0.3-1.7-0.4-2.2s-0.6-0.8-1.1-1-1.4-0.4-2.6-0.4c-0.9 0-1.6 0.1-2.2 0.3-0.5 0.2-1 0.5-1.3 0.9s-0.5 1.1-0.7 1.9c-0.1 0.8-0.2 1.9-0.2 3.2s0.1 2.4 0.2 3.2 0.4 1.4 0.7 1.8 0.8 0.7 1.3 0.9 1.3 0.2 2.2 0.2 1.7-0.1 2.2-0.2c0.6-0.1 1-0.3 1.3-0.6s0.5-0.6 0.7-1.1c0.1-0.4 0.2-1 0.2-1.8"/>
<polygon class="st3" points="104.6 38.8 104.6 25.2 99.6 25.2 99.6 23.7 111.2 23.7 111.2 25.2 106.3 25.2 106.3 38.8"/>
<path class="st3" d="m121.7 34.2l-3.3-9.3-3.3 9.3h6.6zm-10.2 4.6l5.5-15.1h2.4l5.6 15.1h-1.8l-1.1-3.1h-7.6l-1.2 3.1h-1.8z"/>
	<defs>
		<rect id="c" width="217.5" height="48"/>
	</defs>
	<clipPath id="b">
		<use xlink:href="#c"/>
	</clipPath>
	<path class="st5" d="m128.2 31.7v5.5h4.7c0.7 0 1.3 0 1.7-0.1s0.8-0.2 1-0.4c0.3-0.2 0.5-0.5 0.6-0.8 0.1-0.4 0.2-0.9 0.2-1.5 0-0.8-0.1-1.4-0.2-1.8-0.2-0.4-0.4-0.6-0.8-0.8-0.4-0.1-1-0.2-1.8-0.2h-5.4zm0-6.5v5.1h4.8c0.8 0 1.3-0.1 1.8-0.2 0.4-0.2 0.7-0.4 0.9-0.8s0.3-0.9 0.3-1.7c0-0.9-0.2-1.6-0.5-1.9s-0.9-0.5-1.8-0.5h-5.5zm6 13.6h-7.7v-15.1h7.3c1.3 0 2.3 0.3 2.9 0.9s0.9 1.5 0.9 2.9c0 0.6 0 1.2-0.1 1.6s-0.3 0.8-0.5 1.1-0.7 0.6-1.2 0.8c0.6 0.2 1.1 0.4 1.5 0.7 0.3 0.3 0.6 0.7 0.7 1.1s0.2 1 0.2 1.7c0 1.4-0.3 2.5-0.9 3.2-0.7 0.7-1.7 1.1-3.1 1.1"/>
<polygon class="st3" points="149.3 23.7 151 23.7 151 37.3 158.7 37.3 158.7 23.7 160.4 23.7 160.4 37.3 161.4 37.3 161.4 42.3 159.9 42.3 159.9 38.8 140 38.8 140 23.7 141.6 23.7 141.6 37.3 149.3 37.3"/>
<polygon class="st3" points="163.1 23.7 164.8 23.7 164.8 37.6 173.4 23.7 176.1 23.7 176.1 38.8 174.4 38.8 174.4 25 165.8 38.8 163.1 38.8"/>
<polygon class="st3" points="180.2 23.7 180.2 30.3 181.7 30.3 187.9 23.7 190.1 23.7 183.2 31 190.9 38.8 188.6 38.8 181.7 31.8 180.2 31.8 180.2 38.8 178.5 38.8 178.5 23.7"/>
	<defs>
		<rect id="a" width="217.5" height="48"/>
	</defs>
	<clipPath id="j">
		<use xlink:href="#a"/>
	</clipPath>
	<path class="st6" d="m193.4 34.5c0.1 0.8 0.3 1.4 0.6 1.8s0.8 0.7 1.4 0.9 1.4 0.2 2.5 0.2 1.9-0.1 2.5-0.2c0.6-0.2 1-0.5 1.4-0.9 0.3-0.4 0.5-1 0.6-1.8s0.2-1.9 0.2-3.3c0-1.5-0.1-2.6-0.2-3.3-0.1-0.8-0.3-1.4-0.6-1.8s-0.8-0.7-1.3-0.9c-0.6-0.2-1.4-0.2-2.5-0.2s-1.9 0.1-2.5 0.2c-0.6 0.2-1 0.4-1.3 0.9-0.3 0.4-0.5 1-0.6 1.8s-0.2 1.9-0.2 3.3c-0.2 1.5-0.1 2.6 0 3.3m-1.6-7.3c0.2-1 0.5-1.8 1-2.3s1.1-0.9 1.9-1.1 1.9-0.3 3.2-0.3 2.4 0.1 3.2 0.3 1.4 0.6 1.9 1.1 0.8 1.3 1 2.3 0.3 2.3 0.3 4-0.1 3-0.3 4-0.5 1.8-1 2.3-1.1 0.9-1.9 1.1-1.9 0.3-3.2 0.3-2.4-0.1-3.2-0.3-1.4-0.6-1.9-1.1-0.8-1.3-1-2.3-0.3-2.3-0.3-4c0-1.6 0.1-3 0.3-4"/>
	<path class="st6" d="m207.6 31.7v5.5h4.7c0.7 0 1.3 0 1.7-0.1s0.8-0.2 1-0.4c0.3-0.2 0.5-0.5 0.6-0.8 0.1-0.4 0.2-0.9 0.2-1.5 0-0.8-0.1-1.4-0.2-1.8-0.2-0.4-0.4-0.6-0.8-0.8-0.4-0.1-1-0.2-1.8-0.2h-5.4zm0-6.5v5.1h4.8c0.8 0 1.3-0.1 1.8-0.2 0.4-0.2 0.7-0.4 0.9-0.8s0.3-0.9 0.3-1.7c0-0.9-0.2-1.6-0.5-1.9s-0.9-0.5-1.8-0.5h-5.5zm6 13.6h-7.7v-15.1h7.3c1.3 0 2.3 0.3 2.9 0.9s0.9 1.5 0.9 2.9c0 0.6 0 1.2-0.1 1.6s-0.3 0.8-0.5 1.1-0.7 0.6-1.2 0.8c0.6 0.2 1.1 0.4 1.5 0.7 0.3 0.3 0.6 0.7 0.7 1.1s0.2 1 0.2 1.7c0 1.4-0.3 2.5-0.9 3.2-0.7 0.7-1.7 1.1-3.1 1.1"/>
<path class="st3" d="M8.2,16.3h23.5v23.5H8.2V16.3z M0,48h39.9V8.1H0V48z"/>
<path class="st0" d="M16.3,8.2h23.5v23.5H16.3V8.2z M8.1,39.9H48V0H8.1V39.9z"/>
<polygon class="st3" points="31.7 8.2 31.7 39.9 39.9 48 39.9 8.1"/>
</svg>
