<?xml version="1.0" encoding="utf-8"?>
<!-- Generator: Adobe Illustrator 19.2.1, SVG Export Plug-In . SVG Version: 6.00 Build 0)  -->
<svg version="1.1" id="Слой_1" xmlns="http://www.w3.org/2000/svg" xmlns:xlink="http://www.w3.org/1999/xlink" x="0px" y="0px"
	 viewBox="0 0 18 18" style="enable-background:new 0 0 18 18;" xml:space="preserve">
<style type="text/css">
	.st0{clip-path:url(#SVGID_2_);fill:#7F8080;}
</style>
<g>
	<defs>
		<rect id="SVGID_1_" width="18" height="18"/>
	</defs>
	<clipPath id="SVGID_2_">
		<use xlink:href="#SVGID_1_"  style="overflow:visible;"/>
	</clipPath>
	<path class="st0" d="M9,12.3c-1.8,0-3.3-1.5-3.3-3.3c0-1.8,1.5-3.3,3.3-3.3c1.8,0,3.3,1.5,3.3,3.3C12.3,10.8,10.8,12.3,9,12.3
		 M18,10.7V7.3h-3c-0.1-0.5-0.3-1-0.6-1.4l2.1-2.1l-2.3-2.3l-2.1,2.1c-0.4-0.3-0.9-0.5-1.4-0.6V0H7.3v3c-0.5,0.1-1,0.3-1.4,0.6
		L3.8,1.5L1.5,3.8l2.1,2.1C3.3,6.4,3.1,6.8,3,7.3H0v3.3h3c0.1,0.5,0.3,1,0.6,1.4l-2.1,2.1l2.3,2.3l2.1-2.1c0.4,0.3,0.9,0.5,1.4,0.6
		v3h3.3v-3c0.5-0.1,1-0.3,1.4-0.6l2.1,2.1l2.3-2.3l-2.1-2.1c0.3-0.4,0.5-0.9,0.6-1.4H18z"/>
</g>
</svg>
