<svg width="38" height="43" viewBox="0 0 38 43" fill="none" xmlns="http://www.w3.org/2000/svg">
<path fill-rule="evenodd" clip-rule="evenodd" d="M35.864 40.0478C35.864 39.487 35.8382 38.9322 35.7879 38.3845C35.6904 37.3251 36.0615 39.3825 35.7879 38.3845H32.4151C32.4048 38.2936 32.4271 38.4749 32.4151 38.3845L28.7196 41.7395H32.509H35.864V40.0478ZM18.7723 41.7395H3.35504H0V40.0478C0 39.487 0.0257463 38.9322 0.0761214 38.3845C0.915304 29.2607 8.58926 22.1158 17.932 22.1158C27.2747 22.1158 34.5831 30.5454 35.7879 38.3845H32.4151C31.7151 33.1071 25.4202 25.4709 17.932 25.4709C10.4438 25.4709 4.2744 31.1171 3.4489 38.3845H10.617L18.7723 41.7395ZM18.7723 41.7395L10.617 38.3845H20.5494H22.1747H32.4151L28.7196 41.7395H18.7723Z" fill="#264B82"/>
<path d="M25.3207 36.8437L24.716 37.5158L25.3239 38.185L27.5834 40.6724L28.3279 41.492L29.0677 40.668L35.7441 33.2314L36.3419 32.5656L35.7463 31.8978L29.0015 24.3344L28.2545 23.4968L27.5083 24.3351L25.2716 26.8478L24.6739 27.5192L25.278 28.1848L26.7547 29.8115L16.9944 29.8666L15.9955 29.8722L16 30.8711L16.0157 34.3027L16.0202 35.3037L17.0213 35.2981L26.7608 35.2432L25.3207 36.8437Z" fill="#264B82" stroke="white" stroke-width="2"/>
<circle cx="18.5" cy="10.5" r="8.9" stroke="#264B82" stroke-width="3.2"/>
</svg>
