<svg width="22" height="25" viewBox="0 0 22 25" fill="none" xmlns="http://www.w3.org/2000/svg">
<path d="M1 3.37866C0.447715 3.37866 0 3.82638 0 4.37866C0 4.93095 0.447715 5.37866 1 5.37866V3.37866ZM4.6938 4.37866L5.64067 4.05705L5.41025 3.37866H4.6938V4.37866ZM8.31367 15.5438L7.36071 15.8468L8.31367 15.5438ZM1 5.37866H4.6938V3.37866H1V5.37866ZM10.2196 17.9376H17.0287V15.9376H10.2196V17.9376ZM19.8832 15.8605L21.6211 10.4849L19.7181 9.86967L17.9802 15.2452L19.8832 15.8605ZM3.74693 4.70028L4.8282 7.88366L6.72194 7.24043L5.64067 4.05705L3.74693 4.70028ZM4.82211 7.86513L7.36071 15.8468L9.26663 15.2407L6.72803 7.25895L4.82211 7.86513ZM18.7666 6.56204H5.77507V8.56204H18.7666V6.56204ZM21.6211 10.4849C22.2475 8.54741 20.8028 6.56204 18.7666 6.56204V8.56204C19.4453 8.56204 19.9269 9.22383 19.7181 9.86967L21.6211 10.4849ZM17.0287 17.9376C18.3299 17.9376 19.4829 17.0986 19.8832 15.8605L17.9802 15.2452C17.8467 15.6579 17.4624 15.9376 17.0287 15.9376V17.9376ZM10.2196 15.9376C9.78407 15.9376 9.39863 15.6557 9.26663 15.2407L7.36071 15.8468C7.75671 17.092 8.91303 17.9376 10.2196 17.9376V15.9376Z" fill="#264B82"/>
<circle cx="9.36588" cy="21.8964" r="1.94" stroke="#264B82" stroke-width="1.8"/>
<circle cx="18.0461" cy="21.8964" r="1.94" stroke="#264B82" stroke-width="1.8"/>
<mask id="path-4-outside-1" maskUnits="userSpaceOnUse" x="6.85486" y="-0.0856328" width="13" height="13" fill="black">
<rect fill="white" x="6.85486" y="-0.0856328" width="13" height="13"/>
<path fill-rule="evenodd" clip-rule="evenodd" d="M12.6723 6.52646L11.0845 4.93861L9.85486 6.16824L13.601 9.91437L17.3471 6.16824L16.1175 4.93861L14.2823 6.77379L14.2823 2L12.6723 2L12.6723 6.52646Z"/>
</mask>
<path fill-rule="evenodd" clip-rule="evenodd" d="M12.6723 6.52646L11.0845 4.93861L9.85486 6.16824L13.601 9.91437L17.3471 6.16824L16.1175 4.93861L14.2823 6.77379L14.2823 2L12.6723 2L12.6723 6.52646Z" fill="#264B82"/>
<path d="M12.6723 6.52646L11.6117 7.58712L14.1723 10.1478L14.1723 6.52646L12.6723 6.52646ZM11.0845 4.93861L12.1451 3.87795L11.0845 2.81729L10.0238 3.87795L11.0845 4.93861ZM9.85486 6.16824L8.7942 5.10758L7.73354 6.16824L8.7942 7.2289L9.85486 6.16824ZM13.601 9.91437L12.5403 10.975L13.601 12.0357L14.6617 10.975L13.601 9.91437ZM17.3471 6.16824L18.4078 7.2289L19.4684 6.16823L18.4078 5.10757L17.3471 6.16824ZM16.1175 4.93861L17.1782 3.87795L16.1175 2.81729L15.0568 3.87795L16.1175 4.93861ZM14.2823 6.77379L12.7823 6.77379L12.7823 10.3951L15.343 7.83445L14.2823 6.77379ZM14.2823 2L15.7823 2L15.7823 0.500005L14.2823 0.500005L14.2823 2ZM12.6723 2L12.6723 0.500005L11.1723 0.500005L11.1723 2L12.6723 2ZM13.733 5.4658L12.1451 3.87795L10.0238 5.99927L11.6117 7.58712L13.733 5.4658ZM10.0238 3.87795L8.7942 5.10758L10.9155 7.2289L12.1451 5.99927L10.0238 3.87795ZM8.7942 7.2289L12.5403 10.975L14.6617 8.85371L10.9155 5.10758L8.7942 7.2289ZM14.6617 10.975L18.4078 7.2289L16.2865 5.10758L12.5403 8.85371L14.6617 10.975ZM18.4078 5.10757L17.1782 3.87795L15.0568 5.99927L16.2865 7.2289L18.4078 5.10757ZM15.0568 3.87795L13.2217 5.71313L15.343 7.83445L17.1782 5.99927L15.0568 3.87795ZM12.7823 2L12.7823 6.77379L15.7823 6.77379L15.7823 2L12.7823 2ZM12.6723 3.5L14.2823 3.5L14.2823 0.500005L12.6723 0.500005L12.6723 3.5ZM14.1723 6.52646L14.1723 2L11.1723 2L11.1723 6.52646L14.1723 6.52646Z" fill="#E7EEF7" mask="url(#path-4-outside-1)"/>
</svg>
