<svg width="31" height="19" viewBox="0 0 31 19" fill="none" xmlns="http://www.w3.org/2000/svg">
<rect x="1" y="4" width="20.7368" height="13.8246" rx="2" stroke="#264B82" stroke-width="2"/>
<path d="M22.0292 9.25146H11.2076H6.10381H1" stroke="#264B82" stroke-width="2"/>
<path d="M13 4H14V3V2.2C14 1.53726 13.4627 1 12.8 1H9.2C8.53726 1 8 1.53726 8 2.2V3V4H9H13Z" stroke="#264B82" stroke-width="2"/>
<mask id="path-4-outside-1" maskUnits="userSpaceOnUse" x="9" y="1" width="22" height="16" fill="black">
<rect fill="white" x="9" y="1" width="22" height="16"/>
<path fill-rule="evenodd" clip-rule="evenodd" d="M14.7126 12.1606L22.9996 12.1606L22.9996 10.1245L14.7983 10.1245L16.2719 8.62423L15.0423 7.3724L11.2962 11.1862L15.0423 15L16.2719 13.7482L14.7126 12.1606ZM25.4979 8.17543L24.0242 9.67572L25.2539 10.9276L29 7.11375L25.2539 3.29995L24.0242 4.55179L25.5836 6.1393L17.2964 6.1393L17.2964 8.17543L25.4979 8.17543Z"/>
</mask>
<path fill-rule="evenodd" clip-rule="evenodd" d="M14.7126 12.1606L22.9996 12.1606L22.9996 10.1245L14.7983 10.1245L16.2719 8.62423L15.0423 7.3724L11.2962 11.1862L15.0423 15L16.2719 13.7482L14.7126 12.1606ZM25.4979 8.17543L24.0242 9.67572L25.2539 10.9276L29 7.11375L25.2539 3.29995L24.0242 4.55179L25.5836 6.1393L17.2964 6.1393L17.2964 8.17543L25.4979 8.17543Z" fill="#264B82"/>
<path d="M22.9996 12.1606L22.9996 13.3106L24.1496 13.3106L24.1496 12.1606L22.9996 12.1606ZM14.7126 12.1606L14.7126 11.0106L11.971 11.0106L13.8922 12.9665L14.7126 12.1606ZM22.9996 10.1245L24.1496 10.1245L24.1496 8.97452L22.9996 8.97452L22.9996 10.1245ZM14.7983 10.1245L13.9779 9.31866L12.0567 11.2745L14.7983 11.2745L14.7983 10.1245ZM16.2719 8.62423L17.0924 9.4301L17.8839 8.62423L17.0924 7.81837L16.2719 8.62423ZM15.0423 7.3724L15.8627 6.56654L15.0423 5.7313L14.2219 6.56654L15.0423 7.3724ZM11.2962 11.1862L10.4758 10.3803L9.68421 11.1862L10.4758 11.9921L11.2962 11.1862ZM15.0423 15L14.2219 15.8059L15.0423 16.6411L15.8627 15.8059L15.0423 15ZM16.2719 13.7482L17.0924 14.554L17.8839 13.7482L17.0924 12.9423L16.2719 13.7482ZM24.0242 9.67572L23.2038 8.86986L22.4123 9.67572L23.2038 10.4816L24.0242 9.67572ZM25.4979 8.17543L26.3183 8.98129L28.2395 7.02543L25.4979 7.02543L25.4979 8.17543ZM25.2539 10.9276L24.4335 11.7334L25.2539 12.5687L26.0743 11.7334L25.2539 10.9276ZM29 7.11375L29.8204 7.91961L30.612 7.11375L29.8204 6.30789L29 7.11375ZM25.2539 3.29995L26.0743 2.49409L25.2539 1.65885L24.4334 2.49409L25.2539 3.29995ZM24.0242 4.55179L23.2038 3.74593L22.4123 4.55179L23.2038 5.35765L24.0242 4.55179ZM25.5836 6.1393L25.5836 7.2893L28.3252 7.2893L26.404 5.33344L25.5836 6.1393ZM17.2964 6.1393L17.2963 4.9893L16.1463 4.9893L16.1464 6.1393L17.2964 6.1393ZM17.2964 8.17543L16.1464 8.17543L16.1464 9.32543L17.2964 9.32543L17.2964 8.17543ZM22.9996 11.0106L14.7126 11.0106L14.7126 13.3106L22.9996 13.3106L22.9996 11.0106ZM21.8496 10.1245L21.8496 12.1606L24.1496 12.1606L24.1496 10.1245L21.8496 10.1245ZM14.7983 11.2745L22.9996 11.2745L22.9996 8.97452L14.7983 8.97452L14.7983 11.2745ZM15.4515 7.81837L13.9779 9.31866L15.6187 10.9304L17.0924 9.4301L15.4515 7.81837ZM14.2219 8.17826L15.4515 9.4301L17.0924 7.81837L15.8627 6.56654L14.2219 8.17826ZM12.1166 11.9921L15.8627 8.17826L14.2219 6.56654L10.4758 10.3803L12.1166 11.9921ZM15.8627 14.1941L12.1166 10.3803L10.4758 11.9921L14.2219 15.8059L15.8627 14.1941ZM15.4515 12.9423L14.2219 14.1941L15.8627 15.8059L17.0924 14.554L15.4515 12.9423ZM13.8922 12.9665L15.4515 14.554L17.0924 12.9423L15.533 11.3548L13.8922 12.9665ZM24.8447 10.4816L26.3183 8.98129L24.6775 7.36957L23.2038 8.86986L24.8447 10.4816ZM26.0743 10.1217L24.8447 8.86986L23.2038 10.4816L24.4335 11.7334L26.0743 10.1217ZM28.1796 6.30789L24.4335 10.1217L26.0743 11.7334L29.8204 7.91961L28.1796 6.30789ZM24.4334 4.10581L28.1796 7.91961L29.8204 6.30789L26.0743 2.49409L24.4334 4.10581ZM24.8447 5.35765L26.0743 4.10581L24.4334 2.49409L23.2038 3.74593L24.8447 5.35765ZM26.404 5.33344L24.8447 3.74593L23.2038 5.35765L24.7632 6.94516L26.404 5.33344ZM17.2964 7.2893L25.5836 7.2893L25.5836 4.9893L17.2963 4.9893L17.2964 7.2893ZM18.4464 8.17543L18.4464 6.1393L16.1464 6.1393L16.1464 8.17543L18.4464 8.17543ZM25.4979 7.02543L17.2964 7.02543L17.2964 9.32543L25.4979 9.32543L25.4979 7.02543Z" fill="#E7EEF7" mask="url(#path-4-outside-1)"/>
</svg>
