<svg viewBox="0 0 48 48" xmlns="http://www.w3.org/2000/svg"><rect width="100%" height="100%" fill="none"/><g class="currentLayer"><path fill="#db2b21" d="M0 0h48v48H0z"/><path d="M32.63 20.204v.6c0 5.7-4.4 12.3-12.3 12.3-2.5 0-4.7-.7-6.6-1.9.3 0 .7.1 1 .1 2 0 3.9-.7 5.4-1.8-1.9 0-3.5-1.3-4-3 .3 0 .5.1.8.1.4 0 .8-.1 1.1-.1-2-.4-3.5-2.1-3.5-4.2v-.1c.6.3 1.2.5 2 .5-1.2-.8-1.9-2.1-1.9-3.6 0-.8.2-1.5.6-2.2 2.1 2.6 5.3 4.3 8.9 4.5-.1-.3-.1-.7-.1-1 0-2.4 1.9-4.3 4.3-4.3 1.2 0 2.4.5 3.2 1.4 1-.2 1.9-.5 2.7-1-.3 1-1 1.8-1.9 2.4.9-.1 1.7-.3 2.5-.7-.6.6-1.3 1.4-2.2 2z" fill="#fff"/></g></svg>