<svg viewBox="0 0 48 48" xmlns="http://www.w3.org/2000/svg"><path fill="#db2b21" d="M-.4 0h48v48h-48z"/><path d="M34.5 23.5c-2.6 3.5-2.9 3.1-.7 5.1 2.1 1.9 2.5 2.8 2.6 3 0 0 .9 1.5-1 1.5l-3.4.1c-.7.1-1.7-.5-1.7-.5-1.3-.9-2.5-3.2-3.4-2.9 0 0-1 .3-.9 2.4 0 .4-.2.7-.2.7s-.2.3-.7.3h-1.5c-3.6.1-6.6-3-6.6-3s-3.3-3.4-6.1-10.1c-.2-.4 0-.7 0-.7s.2-.3.8-.3h3.7l.6.2s.2.1.3.4c.6 1.5 1.4 2.9 1.4 2.9 1.3 2.8 2.3 3.2 2.8 2.9 0 0 .7-.4.5-3.8-.1-1.2-.4-1.8-.4-1.8-.3-.4-.9-.5-1.1-.6-.2 0 .1-.5.6-.7.7-.3 1.8-.3 3.2-.3 1.1 0 1.4.1 1.8.2 1.3.3.8 1.5.8 4.3 0 .9-.2 2.2.5 2.6.3.2 1 0 2.7-2.9 0 0 .8-1.4 1.4-3 .1-.3.3-.4.3-.4s.2-.1.5-.1h3.9c1.2-.1 1.4.4 1.4.4.1.7-.6 2-2.1 4.1z" fill="#fff"/></svg>