<?xml version="1.0" encoding="UTF-8"?>
<svg width="89px" height="36px" viewBox="0 0 89 36" version="1.1" xmlns="http://www.w3.org/2000/svg" xmlns:xlink="http://www.w3.org/1999/xlink">
    <!-- Generator: Sketch 42 (36781) - http://www.bohemiancoding.com/sketch -->
    <title>logo (1) copy</title>
    <desc>Created with Sketch.</desc>
    <defs>
        <rect id="path-1" x="0" y="0.000193521951" width="88.5189189" height="35.608039"></rect>
        <rect id="path-3" x="0" y="4.21214187" width="88.5189189" height="35.608039"></rect>
        <rect id="path-5" x="0" y="4.21214187" width="88.5189189" height="35.608039"></rect>
        <rect id="path-7" x="0" y="4.21214187" width="88.5189189" height="35.608039"></rect>
        <rect id="path-9" x="0" y="4.21214187" width="88.5189189" height="35.608039"></rect>
        <rect id="path-11" x="0" y="4.21214187" width="88.5189189" height="35.608039"></rect>
        <rect id="path-13" x="0" y="4.33484704" width="88.5189189" height="35.608039"></rect>
    </defs>
    <g id="LATEST" stroke="none" stroke-width="1" fill="none" fill-rule="evenodd">
        <g id="web-elements" transform="translate(-494.000000, -489.000000)">
            <g id="header-copy" transform="translate(261.000000, 476.000000)">
                <g id="logo-(1)-copy" transform="translate(233.000000, 9.000000)">
                    <g id="Group" transform="translate(0.000000, 0.150548)">
                        <mask id="mask-2" fill="white">
                            <use xlink:href="#path-1"></use>
                        </mask>
                        <g id="SVGID_1_"></g>
                        <path d="M44.0857073,15.7903667 C42.7204286,15.7903667 41.5064824,16.643605 40.9755622,17.4782652 C40.6719307,16.4731121 39.8375722,15.7903667 38.4722935,15.7903667 C37.0878808,15.7903667 35.874128,16.7005004 35.4949268,17.2696485 L35.4949268,16.0179485 L33.5034444,16.0179485 L33.5034444,25.1771489 L35.4949268,25.1771489 L35.4949268,18.7866671 C35.9120094,18.1797822 36.7274272,17.5537387 37.5998604,17.5537387 C38.6806416,17.5537387 39.1170514,18.217519 39.1170514,19.2039004 L39.1170514,25.1771489 L41.1083406,25.1771489 L41.1083406,18.7675084 C41.5064824,18.1797822 42.3408409,17.5537387 43.2324081,17.5537387 C44.2942486,17.5537387 44.7304651,18.217519 44.7304651,19.2039004 L44.7304651,25.1771489 L46.7217543,25.1771489 L46.7217543,18.5588917 C46.721561,16.7005004 45.7733649,15.7903667 44.0857073,15.7903667" id="Shape" fill="#FFFFFF" mask="url(#mask-2)"></path>
                        <mask id="mask-4" fill="white">
                            <use xlink:href="#path-3"></use>
                        </mask>
                        <g id="SVGID_1_"></g>
                        <path d="M53.4352765,15.7901732 C50.533866,15.7901732 48.7321774,17.970972 48.7321774,20.5879694 C48.7321774,23.2239319 50.533866,25.4047308 53.4352765,25.4047308 C56.3745684,25.4047308 58.1577028,23.2239319 58.1577028,20.5879694 C58.1575095,17.970972 56.3745684,15.7901732 53.4352765,15.7901732 M53.4352765,23.6411652 C51.7474256,23.6411652 50.7992295,22.2185853 50.7992295,20.5879694 C50.7992295,18.9761251 51.7472323,17.5539322 53.4352765,17.5539322 C55.1420681,17.5539322 56.0902642,18.9761251 56.0902642,20.5879694 C56.0902642,22.2187789 55.1420681,23.6411652 53.4352765,23.6411652" id="Shape" fill="#FFFFFF" mask="url(#mask-4)"></path>
                        <mask id="mask-6" fill="white">
                            <use xlink:href="#path-5"></use>
                        </mask>
                        <g id="SVGID_1_"></g>
                        <path d="M63.562382,19.601975 C62.4810209,19.3556216 61.5708996,19.1659701 61.5708996,18.5021898 C61.5708996,17.8571811 62.2347915,17.3834394 63.2776912,17.3834394 C64.4156812,17.3834394 65.4400267,17.8571811 65.9895011,18.4832246 L66.8240529,17.0798035 C65.9895011,16.3401626 64.813823,15.7905602 63.2585572,15.7905602 C60.9448891,15.7905602 59.6553734,17.0798035 59.6553734,18.5778569 C59.6553734,20.6260932 61.5332114,21.0433265 63.1068381,21.3845057 C64.225694,21.6312462 65.1928309,21.8398629 65.1928309,22.5980819 C65.1928309,23.3187576 64.5859544,23.8306232 63.3913356,23.8306232 C62.1963302,23.8306232 60.9259484,23.2051603 60.2809972,22.5411864 L59.3708759,23.9823444 C60.319072,24.9114433 61.7413661,25.4047308 63.2966319,25.4047308 C65.7620191,25.4047308 67.1083571,24.1721894 67.1083571,22.5601516 C67.1085504,20.3985114 65.1551427,19.9433478 63.562382,19.601975" id="Shape" fill="#FFFFFF" mask="url(#mask-6)"></path>
                        <mask id="mask-8" fill="white">
                            <use xlink:href="#path-7"></use>
                        </mask>
                        <g id="SVGID_1_"></g>
                        <path d="M70.142546,22.730838 C69.4220252,22.730838 68.8151487,23.3377228 68.8151487,24.058205 C68.8151487,24.7786872 69.4222184,25.3855721 70.142546,25.3855721 C70.86326,25.3855721 71.4701365,24.7786872 71.4701365,24.058205 C71.4701365,23.3377228 70.86326,22.730838 70.142546,22.730838" id="Shape" fill="#FFFFFF" mask="url(#mask-8)"></path>
                        <mask id="mask-10" fill="white">
                            <use xlink:href="#path-9"></use>
                        </mask>
                        <g id="SVGID_1_"></g>
                        <path d="M75.7563462,17.3642807 L75.7563462,16.017755 L73.7650571,16.017755 L73.7650571,25.1771489 L75.7563462,25.1771489 L75.7563462,18.9383883 C76.1544881,18.2933796 77.2735373,17.7246186 78.108089,17.7246186 C78.3543185,17.7246186 78.5630531,17.7433902 78.7337129,17.781514 L78.7337129,15.8095254 C77.5387075,15.8095254 76.4391789,16.4918838 75.7563462,17.3642807" id="Shape" fill="#FFFFFF" mask="url(#mask-10)"></path>
                        <mask id="mask-12" fill="white">
                            <use xlink:href="#path-11"></use>
                        </mask>
                        <g id="SVGID_1_"></g>
                        <path d="M86.5276298,16.0179485 L86.5276298,22.4465542 C86.0535317,23.0722107 85.1810985,23.6411652 84.175887,23.6411652 C83.057031,23.6411652 82.3365102,23.2051603 82.3365102,21.7827739 L82.3365102,16.0179485 L80.3450278,16.0179485 L80.3450278,22.5036432 C80.3450278,24.3808061 81.3125512,25.4047308 83.2845131,25.4047308 C84.725748,25.4047308 85.8639312,24.7032137 86.5274365,23.9637663 L86.5274365,25.1773425 L88.5189189,25.1773425 L88.5189189,16.0179485 L86.5276298,16.0179485 Z" id="Shape" fill="#FFFFFF" mask="url(#mask-12)"></path>
                        <mask id="mask-14" fill="white">
                            <use xlink:href="#path-13"></use>
                        </mask>
                        <g id="SVGID_1_-Copy"></g>
                        <path d="M0,31.1902753 C0,32.8833988 1.37745488,34.260501 3.07052416,34.260501 L11.4898716,34.260501 L11.4898716,39.9426925 L13.3489622,37.9827022 C16.0006643,35.2346905 18.1098498,34.260501 21.4082426,34.260501 L24.4289023,34.260501 C26.1219716,34.260501 27.4994265,32.8833988 27.4994265,31.1902753 L27.4994265,4.33465352 L0,4.33465352 L0,31.1902753 Z M2.02395222,6.35850608 L25.4754743,6.35850608 L25.4754743,31.1902753 C25.4754743,31.7673577 25.0060148,32.2366484 24.4289023,32.2366484 L21.4082426,32.2366484 C18.5029666,32.2366484 15.9950594,32.717357 13.1920247,35.7864216 L13.1810082,32.2366484 L3.07052416,32.2366484 C2.49341173,32.2366484 2.02395222,31.7673577 2.02395222,31.1902753 L2.02395222,6.35850608 L2.02395222,6.35850608 Z" id="Shape" fill="#FFFFFF" mask="url(#mask-14)"></path>
                    </g>
                </g>
            </g>
        </g>
    </g>
</svg>